<?xml version="1.0" encoding="UTF-8"?><svg id="Layer_2" xmlns="http://www.w3.org/2000/svg" viewBox="0 0 2481.48 351"><g id="Layer_1-2"><g><path d="M135,137.68v75.64c0,12.92,4.58,22.85,13.75,29.78,9.16,6.94,21.16,10.4,36,10.4s25.58-2.2,32.25-6.62c6.66-4.41,12.25-10.87,16.75-19.38,4.5-8.51,10.41-12.77,17.75-12.77h108c3,0,5.58,1.07,7.75,3.2,2.16,2.13,3.25,4.67,3.25,7.62,0,30.5-14.67,58.38-44,83.63-14.67,12.47-34.17,22.55-58.5,30.26-24.34,7.7-53,11.55-86,11.55s-63.09-4.95-90.25-14.87c-27.17-9.91-49.25-26.16-66.25-48.75C8.5,264.8,0,237.09,0,204.27v-57.53c0-32.82,8.5-60.61,25.5-83.36C57.5,21.12,111,0,186,0c30.33,0,57.66,3.86,82,11.56,24.33,7.7,43.83,17.79,58.5,30.25,29.33,25.25,44,53.12,44,83.62,0,2.95-1.09,5.49-3.25,7.62-2.17,2.13-4.75,3.2-7.75,3.2h-108c-7.34,0-13.25-4.25-17.75-12.76s-10.09-14.97-16.75-19.38c-6.67-4.41-17.42-6.62-32.25-6.62s-26.84,3.47-36,10.4c-9.17,6.94-13.75,16.86-13.75,29.78Z"/><path d="M804.5,335c.66,1.34,1,3.17,1,5.5s-1.09,4.59-3.25,6.75-4.75,3.25-7.75,3.25h-113.5c-10,0-17-4.16-21-12.5l-44-99h-42v98c0,3.67-1.34,6.84-4,9.5s-5.84,4-9.5,4h-108c-3.67,0-6.84-1.33-9.5-4-2.67-2.66-4-5.83-4-9.5V14c0-3.66,1.33-6.83,4-9.5s5.83-4,9.5-4h194.5c45.66,0,81.83,10.84,108.5,32.5,26.66,21.67,40,51.17,40,88.5,0,45.34-17.5,78.17-52.5,98.5l61.5,115Zm-230.5-241.5v53h62.5c7.33,0,13-2.41,17-7.25,4-4.83,6-10.91,6-18.25s-1.92-13.75-5.75-19.25c-3.84-5.5-9.59-8.25-17.25-8.25h-62.5Z"/><path d="M993.49,253h199.5c3.66,0,6.83,1.34,9.5,4,2.66,2.67,4,5.84,4,9.5v70.5c0,3.67-1.34,6.84-4,9.5s-5.84,4-9.5,4h-316c-3.67,0-6.84-1.33-9.5-4-2.67-2.66-4-5.83-4-9.5V14c0-3.66,1.33-6.83,4-9.5s5.83-4,9.5-4h311c3.66,0,6.83,1.34,9.5,4,2.66,2.67,4,5.84,4,9.5V84.5c0,3.67-1.34,6.84-4,9.5s-5.84,4-9.5,4h-194.5v31.5h167c3.66,0,6.83,1.34,9.5,4,2.66,2.67,4,5.84,4,9.5v65c0,3.67-1.34,6.84-4,9.5s-5.84,4-9.5,4h-167v31.5Z"/><path d="M1361.49,350.5h-94.5c-3,0-5.59-1.08-7.75-3.25-2.17-2.16-3.25-4.25-3.25-6.25s.16-3.5,.5-4.5L1365.49,17c3-11,10.5-16.5,22.5-16.5h139c12,0,19.5,5.5,22.5,16.5l109,319.5c.33,1,.5,2.5,.5,4.5s-1.09,4.09-3.25,6.25-4.75,3.25-7.75,3.25h-94.5c-10.67,0-18.17-5.66-22.5-17l-12.5-35h-122l-12.5,35c-4.34,11.34-11.84,17-22.5,17Zm131.5-149.5l-35.5-104-35.5,104h71Z"/><path d="M1708.48,.5h345c3.66,0,6.83,1.34,9.5,4,2.66,2.67,4,5.84,4,9.5V94.5c0,3.67-1.34,6.84-4,9.5s-5.84,4-9.5,4h-107.5v229c0,3.67-1.34,6.84-4,9.5s-5.84,4-9.5,4h-103c-3.67,0-6.84-1.33-9.5-4-2.67-2.66-4-5.83-4-9.5V108h-107.5c-3.67,0-6.84-1.33-9.5-4-2.67-2.66-4-5.83-4-9.5V14c0-3.66,1.33-6.83,4-9.5s5.83-4,9.5-4Z"/><path d="M2268.48,253h199.5c3.66,0,6.83,1.34,9.5,4,2.66,2.67,4,5.84,4,9.5v70.5c0,3.67-1.34,6.84-4,9.5s-5.84,4-9.5,4h-316c-3.67,0-6.84-1.33-9.5-4-2.67-2.66-4-5.83-4-9.5V14c0-3.66,1.33-6.83,4-9.5s5.83-4,9.5-4h311c3.66,0,6.83,1.34,9.5,4,2.66,2.67,4,5.84,4,9.5V84.5c0,3.67-1.34,6.84-4,9.5s-5.84,4-9.5,4h-194.5v31.5h167c3.66,0,6.83,1.34,9.5,4,2.66,2.67,4,5.84,4,9.5v65c0,3.67-1.34,6.84-4,9.5s-5.84,4-9.5,4h-167v31.5Z"/></g></g></svg>