<?xml version="1.0" encoding="UTF-8"?><svg id="Layer_2" xmlns="http://www.w3.org/2000/svg" viewBox="0 0 3375.15 1928.01"><g id="Layer_1-2"><g><path d="M26.95,693.45V0H96.6l177.44,175.08,96.18,296.7L538.13,0h68.41l123.96,141.73V835.18h-44.77l-123.96-141.73,.41-254.53-132.25,366.83h-38.56l-94.52-111.82-101.16-280.03v421.27h-44.77L26.95,693.45Zm38.97-6.87V52.96h8.71l228.85,633.62h28.19L560.51,52.96h10.36l-.41,362.91-.41,270.71h30.68V9.81h-56.8l-225.95,635.09L92.04,9.81H35.24V686.58h30.68Zm16.58-494.34v-9.81h-8.29v9.81h8.29Zm.83,35.31v-11.77h-9.12v11.77h9.12Zm.83,35.8v-14.22h-9.95v14.22h9.95Zm.83,35.8v-16.67h-10.78v16.67h10.78Zm102.4,137.32h-13.68v-16.67h13.27v-16.67h-14.1v15.69h-13.68v-16.18h13.27v-16.67h-14.1v15.69h-14.1v-16.67h13.68v-16.67h-14.1v16.18h-14.1v-16.67h13.68v-16.67h-14.1v16.18h-14.1v-16.67h13.68v-16.67h-14.1v16.18h-14.1v-16.67h13.68v-16.67h-14.1v16.18h-14.1v-16.67h13.68v-16.67h-14.1v16.18h-11.61v19.13h10.36v13.73h-10.36v21.58h9.54v11.77h-9.54v314.36l113.18,128.98V436.47Zm-112.77-30.41h7.88v9.32h-7.88v-9.32Zm6.63-249.62v-7.36h-6.22v7.36h6.22Zm-.83-35.31v-5.39h-4.56v5.39h4.56Zm-4.56,320.73h5.39v6.38h-5.39v-6.38Zm1.24,35.8h3.32v3.92h-3.32v-3.92Zm21.56-197.15v-14.22h-12.02v14.22h12.02Zm-11.61,71.6h12.02v14.22h-12.02v-14.22Zm10.78-107.4v-11.77h-9.95v11.77h9.95Zm-9.54,143.2h9.95v11.28h-9.95v-11.28Zm8.71-178.51v-9.81h-8.29v9.81h8.29Zm-1.24-35.8v-7.36h-6.22v7.36h6.22Zm-6.22,249.62h7.46v9.32h-7.46v-9.32Zm5.39-284.93v-3.92l-.41-1.47h-4.15v5.4h4.56Zm-4.56,320.73h5.8v6.87h-5.8v-6.87Zm1.24,35.8h3.32v3.92h-3.32v-3.92Zm21.56-197.15v-14.22h-12.02v14.22h12.02Zm-11.19,71.6h11.61v14.22h-11.61v-14.22Zm10.36-106.91v-12.26h-9.95v12.26h9.95Zm-9.54,142.71h9.95v11.28h-9.95v-11.28Zm8.71-178.51v-9.81h-8.29v9.81h8.29Zm-.83-35.31v-7.85h-6.63v7.85h6.63Zm-6.63,249.62h7.46v8.83h-7.46v-8.83Zm.83,35.31h5.8v6.87h-5.8v-6.87Zm260.77,9.32l-98.26-304.55L105.72,22.07l212.27,597.33,47.68-133.88Zm-259.53,26.48h3.32v3.92h-3.32v-3.92Zm21.56-197.15v-14.22h-12.02v14.22h12.02Zm-11.19,71.6h12.02v14.22h-12.02v-14.22Zm10.36-106.91v-12.26h-9.95v12.26h9.95Zm-9.54,142.71h9.95v11.77h-9.95v-11.77Zm8.71-178.51v-9.81h-8.29v9.81h8.29Zm-4.56-35.31l-2.9-7.85v7.85h2.9Zm-2.9,249.62h7.46v8.83h-7.46v-8.83Zm.83,35.8h5.8v6.38h-5.8v-6.38Zm1.24,35.8h3.32v3.92h-3.32v-3.92Zm21.97-197.15v-14.22h-12.44v14.22h12.44Zm-11.61,71.11h12.02v14.22h-12.02v-14.22Zm10.36-106.91v-11.77h-9.95v11.77h9.95Zm-9.54,142.71h9.95v11.77h-9.95v-11.77Zm8.71-178.51l-3.73-9.81h-4.56v9.81h8.29Zm-7.46,214.31h7.46v8.83h-7.46v-8.83Zm1.24,35.8h5.39v6.38h-5.39v-6.38Zm.83,35.8h3.32v3.92h-3.32v-3.92Zm21.97-197.15v-14.22h-12.02v14.22h12.02Zm-11.61,71.11h12.02v14.22h-12.02v-14.22Zm10.36-106.91v-10.3l-.41-1.47h-9.54v11.77h9.95Zm-9.12,142.71h9.54v11.77h-9.54v-11.77Zm.83,35.8h7.88v8.83h-7.88v-8.83Zm1.24,35.8h5.39v6.38h-5.39v-6.38Zm.83,35.8h3.32v3.92h-3.32v-3.92Zm21.97-197.15v-14.22h-12.02v14.22h12.02Zm-11.61,71.11h12.02v14.22h-12.02v-14.22Zm5.8-106.91l-4.15-11.77h-1.24v11.77h5.39Zm-4.56,142.71h9.54v11.77h-9.54v-11.77Zm.83,35.8h7.88v9.32h-7.88v-9.32Zm1.24,35.8h5.39v6.38h-5.39v-6.38Zm1.24,35.8h3.32v3.92h-3.32v-3.92Zm20.31-197.15l-4.98-14.22h-5.8v14.22h10.78Zm-10.36,71.6h12.02v13.73h-12.02v-13.73Zm1.24,35.31h9.95v11.77h-9.95v-11.77Zm.83,35.8h7.88v9.32h-7.88v-9.32Zm1.24,35.8h5.39v6.38h-5.39v-6.38Zm1.66,35.8h3.32v3.92h-3.32v-3.92Zm247.92,188.81l2.49-7.36v-10.3h3.73l6.63-18.15h-10.36v-16.67h14.51v4.9l2.07-5.39h-1.66v-17.16h7.88l12.85-35.31h-6.22v-17.16h12.44l2.49-7.36v-10.3h3.73l6.22-17.66h-9.95v-17.16h14.51v4.9l2.07-5.39h-1.66v-16.67h7.46l12.85-35.8h-5.8v-16.67h12.02l2.9-7.85v-9.81h3.32l6.63-17.66h-9.95v-17.65h14.1v-16.67h-14.51v16.67h-14.51v-17.17h14.1v-17.16h-14.51v16.67h-14.51v-17.17h14.51v-17.16h-14.51v17.16h-14.51v-17.65h14.1v-16.67h-14.51v16.67h-14.51v-17.17h14.1v-17.16h-14.1v16.67h-14.92v-17.17h14.51v-17.16h-9.12l-5.39,14.71v2.45h-.83l-6.22,17.66h7.05v17.17h-13.27l-1.66,4.41v12.75h-4.56l-6.63,18.15h11.19v17.17h-14.51v-7.85l-2.9,8.34h2.49v16.67h-8.71l-5.8,16.18v1.47h-.41l-6.63,18.15h7.05v16.67h-13.27l-1.66,4.9v12.75h-4.56l-6.63,18.15h11.19v16.67h-14.51v-7.36l-2.9,7.85h2.49v17.16h-8.71l-5.8,16.67v.49l-6.63,18.15h6.63v17.16h-12.85l-2.07,5.39v11.77l.41,.49h14.51v17.17l.41,.49h14.1v16.67l.83,.98h14.1v16.67l.41,.49h14.51v17.17l.41,.49h14.1v16.67l.83,.98h12.02Zm-71.31-140.26h14.1v17.16h-14.1v-17.16Zm0,35.31h14.1v16.67h-14.1v-16.67Zm14.51-52.47h14.51v16.67h-14.51v-16.67Zm0,34.82h14.51v17.16h-14.51v-17.16Zm0,34.82h14.51v17.17h-14.51v-17.17Zm14.92-122.11h14.51v17.17h-14.51v-17.17Zm0,34.82h14.51v17.16h-14.51v-17.16Zm0,34.82h14.51v17.16h-14.51v-17.16Zm0,35.31h14.51v16.67h-14.51v-16.67Zm0,34.82h14.51v17.16h-14.51v-17.16Zm14.92-192.24h14.1v17.17h-14.1v-17.17Zm0,34.82h14.1v17.16h-14.1v-17.16Zm0,35.31h14.1v16.67h-14.1v-16.67Zm0,34.82h14.1v16.67h-14.1v-16.67Zm0,34.82h14.1v17.16h-14.1v-17.16Zm0,34.82h14.1v17.17h-14.1v-17.17Zm0,35.31h14.1v16.67h-14.1v-16.67Zm14.51-227.55h14.51v17.17h-14.51v-17.17Zm0,35.31h14.51v16.67h-14.51v-16.67Zm0,34.82h14.51v17.17h-14.51v-17.17Zm0,34.82h14.51v17.16h-14.51v-17.16Zm0,34.82h14.51v17.16h-14.51v-17.16Zm0,35.31h14.51v16.67h-14.51v-16.67Zm0,34.82h14.51v17.16h-14.51v-17.16Zm0,34.82h14.51v17.17h-14.51v-17.17Zm14.93-297.19h14.51v17.17h-14.51v-17.17Zm0,35.31h14.51v16.67h-14.51v-16.67Zm0,34.82h14.51v17.17h-14.51v-17.17Zm0,34.82h14.51v17.16h-14.51v-17.16Zm0,35.31h14.51v16.67h-14.51v-16.67Zm0,34.82h14.51v16.67h-14.51v-16.67Zm0,34.82h14.51v17.16h-14.51v-17.16Zm0,34.82h14.51v17.17h-14.51v-17.17Zm14.92-261.88h14.1v16.67h-14.1v-16.67Zm0,34.82h14.1v17.17h-14.1v-17.17Zm0,34.82h14.1v17.17h-14.1v-17.17Zm0,35.31h14.1v16.67h-14.1v-16.67Zm0,34.82h14.1v17.17h-14.1v-17.17Zm0,34.82h14.1v17.16h-14.1v-17.16Zm0,34.82h14.1v17.16h-14.1v-17.16Zm0,35.31h14.1v16.67h-14.1v-16.67Zm13.68-315.34v-6.38l-2.07,6.38h2.07Zm.83,87.78h14.51v17.17h-14.51v-17.17Zm0,35.31h14.51v16.67h-14.51v-16.67Zm0,34.82h14.51v17.17h-14.51v-17.17Zm0,34.82h14.51v17.16h-14.51v-17.16Zm0,35.31h14.51v16.67h-14.51v-16.67Zm0,34.82h14.51v16.67h-14.51v-16.67Zm13.68-245.7v-15.69h-13.27v15.69h13.27Zm-.41-35.31v-14.71h-4.56l-5.39,14.71h9.95Zm15.34,52.96v-15.69h-13.68v15.69h13.68Zm-13.68,70.62h14.51v17.17h-14.51v-17.17Zm0,34.82h14.51v17.17h-14.51v-17.17Zm0,35.31h14.51v16.67h-14.51v-16.67Zm0,34.82h14.51v17.17h-14.51v-17.17Zm12.85-210.88v-14.71h-12.02v14.71h12.02Zm-.41-35.8v-13.24h-11.19v13.24h11.19Zm-.41-35.8v-11.28l-4.15,11.28h4.15Zm16.17,124.57v-16.18h-13.27v16.18h13.27Zm-13.27,70.62h14.1v16.67h-14.1v-16.67Zm0,34.82h14.1v17.17h-14.1v-17.17Zm14.1,51.98v-17.16h-14.1v17.16h14.1Zm-1.24-193.22v-14.71h-12.44v14.71h12.44Zm-.41-35.31v-13.73h-11.19v13.73h11.19Zm-.42-35.8v-12.26h-10.36v12.26h10.36Zm-.83-35.8v-10.79h-7.46l-1.66,3.92v6.87h9.12Zm3.32,230.5h14.51v17.17h-14.51v-17.17Zm13.68-70.62v-15.69h-13.27v15.69h13.27Zm-.41-35.31v-14.71h-12.44v14.71h12.44Zm-.41-35.8v-13.24h-11.61v13.24h11.61Zm-.83-35.31v-12.26h-10.36v12.26h10.36Zm-.42-35.8v-10.79h-9.12v10.79h9.12Zm-.41-35.31v-9.81h-8.29v9.81h8.29Zm-.83-35.8v-8.34h-2.9l-2.9,8.34h5.8Zm18.24,230.99v-16.18h-13.68v16.18h13.68Zm-.83-35.8v-14.22h-12.02v14.22h12.02Zm-.41-35.31v-13.24h-11.19v13.24h11.19Zm-.41-35.8v-11.77h-10.36v11.77h10.36Zm-.41-35.31v-10.79h-9.54v10.79h9.54Zm-.83-35.8v-9.81h-7.88v9.81h7.88Zm-.41-35.31v-8.34h-7.05v8.34h7.05Zm-.42-35.8v-7.36h-6.22v7.36h6.22Zm6.22,284.93h-1.66v4.41l1.66-4.41Zm6.63-18.15l5.39-15.2v-.98h-13.27v16.18h7.88Zm4.97-35.8v-14.71h-12.44v14.71h12.44Zm-.41-35.8v-13.24h-11.19v13.24h11.19Zm-.83-35.31v-12.26h-9.95v12.26h9.95Zm-.41-35.8v-10.79h-9.12v10.79h9.12Zm-.41-35.31v-9.81h-8.29v9.81h8.29Zm-.41-35.8v-8.34h-7.05v8.34h7.05Zm-.83-35.31v-7.36h-5.8v7.36h5.8Zm-.41-35.8v-5.88h-4.98v5.88h4.98Zm-.41-35.31v-4.9h-4.15v4.9h4.15Zm10.78,287.38h-4.15v11.77l4.15-11.77Zm7.46-21.09v-13.24h-11.19v13.24h11.19Zm-.41-35.31v-12.26h-10.36v12.26h10.36Zm-.41-35.8v-10.79h-9.12v10.79h9.12Zm-.41-35.8v-9.32h-8.29v9.32h8.29Zm-.83-35.31v-8.34h-7.05v8.34h7.05Zm-.41-35.8v-6.87h-5.8v6.87h5.8Zm-.41-35.31v-5.88h-4.98v5.88h4.98Zm-.41-35.8v-4.41h-4.15v4.41h4.15Zm61.36-132.41v-8.83l-2.49-2.94h-7.05v11.77h9.54Zm.83,36.29v-14.22h-10.36v14.22h10.36Zm.83,36.29v-16.18h-11.19v16.18h11.19Zm101.99,242.76h-10.36v-12.26h10.36v-21.58h-11.19v-14.22h11.19v-18.64h-11.19v-16.18h11.19v-18.15h-12.02v-17.65h-14.92v-17.66h-14.93v-17.66h-14.92v-17.66h-14.92v-17.65h-14.92v-17.66h-14.93v-17.66h-11.61v18.15h11.19v16.18h-11.19v19.62h10.78v14.71h-10.78v21.09h9.95v12.75h-9.95v23.05h9.12v10.79h-9.12v433.04l113.18,128.98V351.63Zm-112.35-62.77h7.46v8.83h-7.46v-8.83Zm.83,35.8h5.8v6.87h-5.8v-6.87Zm.83,35.8h4.15v4.9h-4.15v-4.9Zm23.63-233.93v-16.18h-14.1v16.18h14.1Zm-13.68,36.29h13.68v16.18h-13.68v-16.18Zm12.85-72.58v-14.22h-12.44v14.22h12.44Zm-12.02,108.38h12.44v14.22h-12.44v-14.22Zm11.19-144.67v-9.32l-2.07-2.45h-8.71v11.77h10.78Zm-10.36,180.47h10.78v12.75h-10.78v-12.75Zm.83,35.8h9.12v10.79h-9.12v-10.79Zm.83,35.8h7.46v8.83h-7.46v-8.83Zm.83,36.29h5.8v6.87h-5.8v-6.87Zm.83,35.8h4.15v4.9h-4.15v-4.9Zm23.63-233.93v-16.18h-14.1v16.18h14.1Zm-13.68,36.29h13.68v16.18h-13.68v-16.18Zm12.85-72.58v-14.22h-12.02v14.22h12.02Zm-12.02,107.89h12.02v14.71h-12.02v-14.71Zm11.19-144.18v-9.81l-1.66-1.96h-8.71v11.77h10.36Zm-10.36,180.47h10.36v12.26h-10.36v-12.26Zm.41,35.8h9.12v10.79h-9.12v-10.79Zm.83,35.8h7.46v8.83h-7.46v-8.83Zm.83,35.8h5.8v6.87h-5.8v-6.87Zm.83,36.29h4.15v4.9h-4.15v-4.9Zm24.05-233.93v-16.18h-14.1v16.18h14.1Zm-13.68,36.29h13.68v16.18h-13.68v-16.18Zm.41,35.31h12.44v14.71h-12.44v-14.71Zm12.44-107.89v-14.22h-12.02v14.22h12.02Zm-11.61,143.69h10.78v12.75h-10.78v-12.75Zm10.78-179.98v-10.79l-.83-.98h-9.54v11.77h10.36Zm-9.95,215.78h9.12v10.79h-9.12v-10.79Zm.83,36.29h7.46v8.83h-7.46v-8.83Zm.83,35.8h5.8v6.87h-5.8v-6.87Zm.83,35.8h4.15v4.9h-4.15v-4.9Zm24.05-233.44v-16.18h-14.1v16.18h14.1Zm-13.68,36.29h13.68v16.18h-13.68v-16.18Zm.41,35.31h12.02v14.22h-12.02v-14.22Zm12.44-107.89v-14.22h-12.02v14.22h12.02Zm-11.61,143.69h10.78v12.75h-10.78v-12.75Zm10.78-179.98v-11.28l-.41-.49h-9.95v11.77h10.36Zm-9.95,215.78h9.12v10.79h-9.12v-10.79Zm.83,35.8h7.46v8.83h-7.46v-8.83Zm.83,36.29h5.8v6.87h-5.8v-6.87Zm.83,35.8h4.15v4.9h-4.15v-4.9Zm24.05-233.44v-16.18h-14.1v16.18h14.1Zm-13.68,36.29h13.68v16.18h-13.68v-16.18Zm.41,34.82h12.02v14.71h-12.02v-14.71Zm12.44-107.4v-14.22h-12.02v14.22h12.02Zm-12.02,143.2h10.78v12.75h-10.78v-12.75Zm11.19-179.49v-11.77h-10.36v11.77h10.36Zm-10.36,215.78h9.12v10.79h-9.12v-10.79Zm.83,35.8h7.46v8.83h-7.46v-8.83Zm.83,35.8h5.8v6.87h-5.8v-6.87Zm.83,35.8h4.15v4.9h-4.15v-4.9Zm24.46-232.95v-16.18h-14.1v16.18h14.1Zm-13.68,36.29h13.68v16.18h-13.68v-16.18Zm0,34.82h12.44v14.22h-12.44v-14.22Zm12.85-107.4v-14.22h-12.02v14.22h12.02Zm-12.02,143.2h10.78v12.75h-10.78v-12.75Zm11.19-179.49v-11.77h-10.36v11.77h10.36Zm-10.36,215.29h9.12v10.79h-9.12v-10.79Zm.83,36.29h7.46v8.34h-7.46v-8.34Zm.83,35.8h5.8v6.87h-5.8v-6.87Zm.83,35.8h4.15v4.9h-4.15v-4.9Zm21.97-232.95v-16.18h-11.61v16.18h11.61Zm0-36.29v-14.22h-10.36v14.22h10.36Zm0-36.29v-11.77h-9.54v11.77h9.54Zm-9.54,215.29h9.12v10.79h-9.12v-10.79Zm.83,35.8h7.46v8.83h-7.46v-8.83Zm.83,35.8h5.8v6.87h-5.8v-6.87Zm.83,36.29h4.15v4.9h-4.15v-4.9Z"/><path d="M808.03,693.45V0h44.77l123.96,141.73V835.18h-44.77l-123.96-141.73Zm38.97-6.87V9.81h-30.68V686.58h30.68Zm17.83-649.31v-11.77h-9.54v11.77h9.54Zm.83,36.29v-14.22h-10.36v14.22h10.36Zm.83,36.29v-16.18h-11.19v16.18h11.19Zm101.99,242.76h-10.37v-12.26h10.37v-21.58h-11.19v-14.22h11.19v-18.64h-11.19v-16.18h11.19v-18.15h-12.02v-17.66h-14.92v-17.66h-14.92v-17.65h-14.92v-17.66h-14.93v-17.66h-14.92v-17.66h-14.92v-17.65h-11.61v18.14h11.19v16.18h-11.19v19.62h10.78v14.71h-10.78v21.09h9.95v12.75h-9.95v23.05h9.12v10.79h-9.12v432.06l113.18,128.98V352.61Zm-112.35-62.77h7.46v8.83h-7.46v-8.83Zm.83,35.8h5.8v6.87h-5.8v-6.87Zm.83,35.8h4.15v4.9h-4.15v-4.9Zm23.63-233.93v-16.18h-14.1v16.18h14.1Zm-13.68,36.29h13.68v16.18h-13.68v-16.18Zm12.85-72.58v-14.22h-12.44v14.22h12.44Zm-12.02,108.38h12.44v14.22h-12.44v-14.22Zm11.19-144.67v-11.77h-10.78v11.77h10.78Zm-10.36,180.47h10.78v12.75h-10.78v-12.75Zm.83,35.8h9.12v10.79h-9.12v-10.79Zm.83,35.8h7.46v8.83h-7.46v-8.83Zm.83,36.29h5.8v6.87h-5.8v-6.87Zm.83,35.8h4.15v4.9h-4.15v-4.9Zm23.63-233.93v-16.18h-14.1v16.18h14.1Zm-13.68,36.29h13.68v16.18h-13.68v-16.18Zm12.85-72.58v-14.22h-12.02v14.22h12.02Zm-12.02,107.89h12.02v14.71h-12.02v-14.71Zm11.19-144.18v-11.77h-10.36v11.77h10.36Zm-10.36,180.47h10.36v12.26h-10.36v-12.26Zm.41,35.8h9.12v10.79h-9.12v-10.79Zm.83,35.8h7.46v8.83h-7.46v-8.83Zm.83,35.8h5.8v6.87h-5.8v-6.87Zm.83,36.29h4.15v4.9h-4.15v-4.9Zm24.05-233.93v-16.18h-14.1v16.18h14.1Zm-13.68,36.29h13.68v16.18h-13.68v-16.18Zm.41,35.31h12.44v14.71h-12.44v-14.71Zm12.44-107.89v-14.22h-12.02v14.22h12.02Zm-11.61,143.69h10.78v12.75h-10.78v-12.75Zm10.78-179.98v-11.77h-10.36v11.77h10.36Zm-9.95,215.78h9.12v10.79h-9.12v-10.79Zm.83,36.29h7.46v8.83h-7.46v-8.83Zm.83,35.8h5.8v6.87h-5.8v-6.87Zm.83,35.8h4.15v4.9h-4.15v-4.9Zm24.05-233.44v-16.18h-14.1v16.18h14.1Zm-13.68,36.29h13.68v16.18h-13.68v-16.18Zm.41,35.31h12.02v14.22h-12.02v-14.22Zm12.44-107.89v-14.22h-12.02v14.22h12.02Zm-11.61,143.69h10.78v12.75h-10.78v-12.75Zm10.78-179.98v-11.77h-10.36v11.77h10.36Zm-9.95,215.78h9.12v10.79h-9.12v-10.79Zm.83,35.8h7.46v8.83h-7.46v-8.83Zm.83,36.29h5.8v6.87h-5.8v-6.87Zm.83,35.8h4.15v4.9h-4.15v-4.9Zm24.05-233.44v-16.18h-14.1v16.18h14.1Zm-13.68,36.29h13.68v16.18h-13.68v-16.18Zm.41,34.82h12.02v14.71h-12.02v-14.71Zm12.44-107.4v-14.22h-12.02v14.22h12.02Zm-12.02,143.2h10.78v12.75h-10.78v-12.75Zm11.19-179.49v-11.77h-10.36v11.77h10.36Zm-10.36,215.78h9.12v10.79h-9.12v-10.79Zm.83,35.8h7.46v8.83h-7.46v-8.83Zm.83,35.8h5.8v6.87h-5.8v-6.87Zm.83,35.8h4.15v4.9h-4.15v-4.9Zm24.46-232.95v-16.18h-14.1v16.18h14.1Zm-13.68,36.29h13.68v16.18h-13.68v-16.18Zm0,34.82h12.44v14.22h-12.44v-14.22Zm12.85-107.4v-14.22h-12.02v14.22h12.02Zm-12.02,143.2h10.78v12.75h-10.78v-12.75Zm11.19-179.49v-11.77h-10.36v11.77h10.36Zm-10.36,215.29h9.12v10.79h-9.12v-10.79Zm.83,36.29h7.46v8.34h-7.46v-8.34Zm.83,35.8h5.8v6.87h-5.8v-6.87Zm.83,35.8h4.15v4.9h-4.15v-4.9Zm21.97-232.95v-16.18h-11.61v16.18h11.61Zm0-36.29v-14.22h-10.37v14.22h10.37Zm0-36.29v-11.77h-9.54v11.77h9.54Zm-9.54,215.29h9.12v10.79h-9.12v-10.79Zm.83,35.8h7.46v8.83h-7.46v-8.83Zm.83,35.8h5.8v6.87h-5.8v-6.87Zm.83,36.29h4.15v4.9h-4.15v-4.9Z"/><path d="M1054.29,693.45V0h158.37c98.26,0,178.27,40.21,233.41,105.44l99.08,117.21c50.16,59.34,94.94,143.69,94.94,265.32,0,205-126.45,347.22-310.11,347.22h-155.88l-119.81-141.73Zm158.37-6.87c181.17,0,305.96-138.3,305.96-337.41S1393.41,9.81,1212.66,9.81h-150.08V686.58h150.08ZM1093.26,43.65h121.47c84.99,.49,156.71,34.82,205.22,96.61,42.29,52.96,66.33,125.06,66.33,209.41,0,177.53-107.38,299.65-267.4,303.08l-125.62,.49V43.65Zm13.27,24.52v-8.83h-4.97v8.83h4.97Zm1.66,37.27v-12.75h-6.63v12.75h6.63Zm102.4,537.5V314.36h-7.05v-10.3h7.05v-22.07h-9.12v-15.69h9.12v-17.16h-10.78v15.2h-13.27v-15.69h12.85v-17.17h-14.51v15.2h-13.27v-15.69h12.85v-17.17h-14.51v15.2h-13.27v-15.69h12.85v-17.16h-14.51v15.2h-13.27v-15.69h12.85v-17.16h-14.51v15.2h-13.27v-15.69h12.85v-17.17h-14.51v15.2h-13.27v-15.69h12.85v-17.17h-14.51v-17.16h-8.71v17.16h8.71v15.2h-8.71v22.56h6.63v10.3h-6.63v27.46h4.56v4.9h-4.56v419.8l109.03-.49Zm-87.48-519.84v-12.75h-10.78v12.75h10.78Zm-1.66-37.76v-8.34h-7.05v8.34h7.05Zm-7.05,113.29h8.71v10.3h-8.71v-10.3Zm2.07,37.76h4.15v4.9h-4.15v-4.9Zm20.31-168.21v-11.28h-9.54v11.28h9.54Zm1.24,72.58v-12.75h-10.78v12.75h10.78Zm-1.66-37.76v-8.34h-7.05v8.34h7.05Zm-7.05,112.8h8.71v10.79h-8.71v-10.79Zm2.07,38.25h4.15v4.9h-4.15v-4.9Zm21.56-95.63v-12.75h-10.78v12.75h10.78Zm-.83-72.09v-11.28h-9.54v11.28h9.54Zm-.83,34.33v-8.34h-7.05v8.34h7.05Zm-7.05,112.8h8.71v10.79h-8.71v-10.79Zm2.07,38.25h4.15v4.9h-4.15v-4.9Zm21.56-96.12v-12.26h-10.78v12.26h10.78Zm-.83-71.11v-11.28h-9.12v11.28h9.12Zm.83-36.29v-11.28h-9.54v11.28h9.54Zm-9.12,182.93h9.12v10.79h-9.12v-10.79Zm7.46-112.8v-8.34h-7.05v8.34h7.05Zm-4.98,151.05h4.15v4.9h-4.15v-4.9Zm21.56-96.12v-12.26h-10.78v12.26h10.78Zm0-70.62v-10.79h-9.54v10.79h9.54Zm.41-36.29v-11.28h-9.54v11.28h9.54Zm-2.07,69.64v-8.34h-7.46v8.34h7.46Zm-7.46,112.8h9.12v10.3h-9.12v-10.3Zm2.49,38.25h4.15v4.9h-4.15v-4.9Zm21.14-96.12v-12.26h-10.36v12.26h10.36Zm.83-70.13v-11.28h-9.54v11.28h9.54Zm-2.49,32.86v-8.34h-7.05v8.34h7.05Zm-7.05,112.8h9.12v10.3h-9.12v-10.3Zm9.54-181.94v-11.28h-9.12v11.28h9.12Zm.83-36.29v-11.28h-9.54v11.28h9.54Zm-7.88,256h4.15v5.39h-4.15v-5.39Zm19.49-95.63v-12.26h-8.29v12.26h8.29Zm0-37.27v-8.34h-6.63v8.34h6.63Zm3.32-68.66v-10.79h-9.54v10.79h9.54Zm0,36.78v-11.28h-9.54v11.28h9.54Zm.41-73.07v-11.28h-9.54v11.28h9.54Zm-8.29,255.51h4.15v4.9h-4.15v-4.9Zm271.96,7.85c0-46.1-7.46-88.27-21.14-125.55-31.92-26.97-66.33-36.78-126.86-36.78h-111.11v455.6c155.47-3.43,259.11-121.13,259.11-293.27Zm-248.75-208.92v-11.28h-9.54v11.28h9.54Zm0,36.78v-11.28h-9.54v11.28h9.54Zm0-73.07v-11.28h-9.12v11.28h9.12Zm.83-36.29v-11.28h-9.54v11.28h9.54Zm1.66,641.96v-3.92h-3.32v3.92h3.32Zm13.27-587.52v-10.79h-9.54v10.79h9.54Zm0,36.78v-11.28h-9.54v11.28h9.54Zm.41-73.07v-11.28h-9.54v11.28h9.54Zm.83,640.98v-3.92h-3.32v3.92h3.32Zm14.1-586.54v-11.28h-9.54v11.28h9.54Zm0,36.78v-11.28h-9.54v11.28h9.54Zm0-73.07v-11.28h-9.12v11.28h9.12Zm0-37.27v-9.32h-7.88v9.32h7.88Zm.83,643.92v-5.39h-4.56v5.39h4.56Zm-.41,32.86v-3.92h-3.32v3.92h3.32Zm15.34-621.36v-10.79h-9.54v10.79h9.54Zm0,36.78v-11.28h-9.54v11.28h9.54Zm-.41-74.05v-9.32h-7.88v9.32h7.88Zm.83,609.1v-3.92l-5.8,.98v2.94h5.8Zm-.83,33.35v-5.39h-4.56v5.39h4.56Zm-.42,33.35v-3.92h-3.32v3.92h3.32Zm16.17-620.38v-11.28h-9.54v11.28h9.54Zm0,36.78v-11.28h-9.54v11.28h9.54Zm-.83-74.05v-9.32h-7.46v9.32h7.46Zm0,608.12v-6.87h-5.39v6.87h5.39Zm-.42,33.35v-5.39h-4.56v5.39h4.56Zm-.41,33.84v-4.41h-3.73v4.41h3.73Zm17.41-619.4v-11.28h-9.54v11.28h9.54Zm-.83-37.76v-8.83h-7.88v8.83h7.88Zm-.41,573.3v-7.85h-7.05v7.85h7.05Zm-.42-610.57v-7.36h-6.22v7.36h6.22Zm-.41,644.41v-6.87h-5.39v6.87h5.39Zm-.42,33.35v-5.39h-4.56v5.39h4.56Zm-.41,33.84v-4.41h-3.73v4.41h3.73Zm18.24-618.42v-11.28h-9.54v11.28h9.54Zm-2.07,534.56v-7.85h-7.05v7.85h7.05Zm1.24-572.32v-9.32h-7.88v9.32h7.88Zm-2.07,606.16v-6.87h-5.39v6.87h5.39Zm.83-643.43v-7.36h-5.8v7.36h5.8Zm-1.24,676.78v-5.4h-4.56v5.4h4.56Zm-.42,33.84v-4.41h-3.73v4.41h3.73Zm16.58-117.21v-9.32h-7.88v9.32h7.88Zm-.83,33.35v-7.85h-6.63v7.85h6.63Zm-.41,33.35v-6.38h-5.8v6.38h5.8Zm-.42,33.84v-5.39h-4.56v5.39h4.56Zm3.73-638.03v-9.32h-7.88v9.32h7.88Zm-1.24-37.76v-6.87h-6.22v6.87h6.22Zm-.83-37.27v-1.47l-4.56-2.94v4.41h4.56Zm14.92,595.86v-10.3h-5.39l-3.32,1.47v8.83h8.71Zm-.83,33.35v-8.83h-7.46v8.83h7.46Zm-.41,33.84v-7.85h-6.63v7.85h6.63Zm-.42,33.35v-6.38h-5.8v6.38h5.8Zm-.41,33.84v-5.39h-4.56v5.39h4.56Zm4.56-637.05v-9.32h-7.88v9.32h7.88Zm-1.24-37.76v-6.87h-6.22v6.87h6.22Zm-.83-38.25v-4.9h-4.56v4.9h4.56Zm14.1,595.86v-10.79h-9.12v10.79h9.12Zm-.83,33.35v-8.83h-7.46v8.83h7.46Zm-.42,33.84v-7.85h-6.63v7.85h6.63Zm-.41,33.35v-6.38h-5.8v6.38h5.8Zm2.07-134.37v-3.92l-7.46,3.92h7.46Zm2.07-505.13v-7.36h-6.22v7.36h6.22Zm-.83-38.25v-4.9h-4.56v4.9h4.56Zm13.27,560.55v-11.77h-9.95v11.77h9.95Zm-.41,33.84v-10.79h-9.12v10.79h9.12Zm-.83,33.35v-9.32h-7.88v9.32h7.88Zm-.42,33.84v-8.34h-6.63v8.34h6.63Zm-.41,33.35v-6.87h-5.8v6.87h5.8Zm4.56-638.52v-7.36h-5.8v7.36h5.8Zm-.83-38.25v-4.9h-4.15v4.9h4.15Zm13.27,526.22v-13.24h-10.78v13.24h10.78Zm-.41,33.35v-11.77h-9.95v11.77h9.95Zm-.83,33.35v-10.3h-8.71v10.3h8.71Zm-.42,33.84v-9.32h-7.88v9.32h7.88Zm-.41,33.35v-7.85h-6.63v7.85h6.63Zm4.56-641.96v-4.9h-4.15v4.9h4.15Zm12.44,491.4v-14.22h-5.39l-6.63,4.9v9.32h12.02Zm-.41,33.35v-12.75h-10.78v12.75h10.78Zm-.83,33.84v-11.77h-9.54v11.77h9.54Zm-.42,33.35v-10.3h-8.71v10.3h8.71Zm-.41,33.84v-9.32h-7.88v9.32h7.88Zm-.42,33.35v-7.85h-6.63v7.85h6.63Zm8.29-640v-4.9h-4.15v4.9h4.15Zm9.12,455.6v-15.2l-12.85,11.77v3.43h12.85Zm-.41,33.84v-14.22h-12.02v14.22h12.02Zm-.42,33.35v-12.75h-11.19v12.75h11.19Zm-.83,33.84v-11.77h-9.54v11.77h9.54Zm-.41,33.35v-10.3h-8.71v10.3h8.71Zm-.42,33.84v-9.32h-7.88v9.32h7.88Zm17.41-184.4v-14.22c-4.56,4.9-9.12,9.81-14.1,14.22h14.1Zm-.41,33.35v-15.2h-12.85v15.2h12.85Zm-.42,33.84v-14.22h-12.02v14.22h12.02Zm-.41,33.35v-12.75h-11.19v12.75h11.19Zm-.83,33.84v-11.77h-9.95v11.77h9.95Zm-.42,33.35v-10.3h-8.71v10.3h8.71Zm-.41,25.5v-.98h-7.88v3.92l7.88-2.94Zm104.47-73.56v-16.67h14.1v6.38l5.39-6.87h-4.56v-15.69h13.27v3.92l4.56-6.38h-2.9v-14.22h11.61l3.32-5.88v-10.3h5.8c6.22-12.75,12.02-25.99,17-39.72h-7.46v-10.79h9.12v6.38c2.07-6.38,4.15-12.26,5.8-18.64v-3.92h1.24c2.07-8.34,4.15-16.67,5.8-25.5h-6.22v-8.34h6.63v7.36c5.39-27.46,8.29-56.4,8.29-86.8,0-118.68-43.12-200.09-92.45-258.45l-53.07-62.77c26.12,51.98,40.63,113.78,40.63,182.44,0,35.8-4.15,70.13-10.78,98.57h6.22v8.34h-6.63v-6.38c-3.73,16.67-8.71,32.86-14.51,48.06h7.88v10.79h-9.12v-7.85c-1.66,4.41-3.73,9.32-5.8,13.73h.83v11.77h-6.22l-7.46,14.22v3.43h-1.66c-7.46,13.24-15.75,25.5-24.88,37.27h13.27v15.69h-13.68v-15.2c-4.15,5.39-8.29,10.79-12.85,15.69h12.44v17.17h-14.1v16.67h14.1v-16.67h14.51v17.16h-14.1v16.18h14.1v-16.18h14.51v16.67h-14.1v16.67h14.1v-16.18h14.1v16.67h-13.68v16.67h14.1v-16.18h14.1v16.67h-13.68v16.67h14.1v-16.18h14.1v16.67h-13.68v16.67h14.1v-16.67h14.1v17.17h-13.68v16.67h14.1Zm-87.48-69.15v-15.2h-13.27v15.2h13.27Zm-.42,33.84v-14.22h-12.02v14.22h12.02Zm-.83,33.35v-12.75h-10.78v12.75h10.78Zm-.42,33.84v-11.77h-9.95v11.77h9.95Zm-.41,33.35v-10.3h-8.71v10.3h8.71Zm16.58-117.21v-15.2h-13.27v15.2h13.27Zm-.41,33.35v-13.73h-12.02v13.73h12.02Zm-.83,33.84v-12.75h-10.78v12.75h10.78Zm-.42,33.35v-11.28h-9.95v11.28h9.95Zm2.49-184.4h13.27v15.69h-13.27v-15.69Zm13.68,101.03v-15.69h-13.27v15.69h13.27Zm-12.85-134.38h12.02v14.22h-12.02v-14.22Zm12.02,167.72v-14.22h-11.61v14.22h11.61Zm-.42,33.84v-13.24h-10.78v13.24h10.78Zm-3.32,22.07h-7.05v3.92l7.05-3.92Zm5.39-173.12h13.27v15.69h-13.27v-15.69Zm13.68,101.03v-15.69h-13.27v15.69h13.27Zm-12.85-134.37h12.02v14.22h-12.02v-14.22Zm12.02,167.72v-14.22h-12.02v14.22h12.02Zm-11.61-201.56h11.19v13.24h-11.19v-13.24Zm1.66,235.4l9.54-5.88v-7.36h-10.78v13.24h1.24Zm11.61-151.05h13.27v15.69h-13.27v-15.69Zm.42-33.35h12.44v14.22h-12.44v-14.22Zm12.85,134.37v-15.69h-12.85v15.69h12.85Zm-.41,33.35v-14.22h-12.02v14.22h12.02Zm-11.61-201.56h10.78v13.24h-10.78v-13.24Zm.42-33.35h9.95v11.77h-9.95v-11.77Zm12.85,117.7h13.27v15.69h-13.27v-15.69Zm.41-33.35h12.44v14.22h-12.44v-14.22Zm12.85,134.38v-15.69h-12.85v15.69h12.85Zm-12.02-168.21h10.78v13.24h-10.78v-13.24Zm.41-33.35h9.95v11.77h-9.95v-11.77Zm.42-33.84h9.12v10.79h-9.12v-10.79Zm.41-33.35h8.29v9.32h-8.29v-9.32Zm12.02,184.89h13.27v15.69h-13.27v-15.69Zm.41-33.84h12.44v14.71h-12.44v-14.71Zm.42-33.35h11.19v13.24h-11.19v-13.24Zm.83-33.84h9.95v12.26h-9.95v-12.26Zm.41-33.35h9.12v10.79h-9.12v-10.79Zm.42-33.84h8.29v9.81h-8.29v-9.81Zm.83-33.35h6.63v8.34h-6.63v-8.34Zm.41-33.35h5.8v6.87h-5.8v-6.87Zm.42-69.15h3.73v4.41h-3.73v-4.41Zm0,35.31h4.97v5.88h-4.97v-5.88Zm14.51,336.43h-4.56v4.9l4.56-4.9Zm-4.15-50.51h13.27v15.69h-13.27v-15.69Zm.42-33.84h12.02v14.71h-12.02v-14.71Zm.41-33.35h11.19v13.24h-11.19v-13.24Zm.83-33.84h9.95v12.26h-9.95v-12.26Zm.42-33.35h9.12v10.79h-9.12v-10.79Zm.41-33.84h7.88v9.81h-7.88v-9.81Zm.42-33.35h7.05v8.34h-7.05v-8.34Zm.83-33.35h5.8v6.87h-5.8v-6.87Zm.41-33.84h4.98v5.89h-4.98v-5.89Zm.42-34.82h3.73v4.41h-3.73v-4.41Zm10.36,286.89h12.02v14.71h-12.02v-14.71Zm.42-33.35h11.19v13.24h-11.19v-13.24Zm.41-33.84h10.37v12.26h-10.37v-12.26Zm.83-33.35h8.71v10.79h-8.71v-10.79Zm.42-33.84h7.88v9.81h-7.88v-9.81Zm.42-33.35h7.05v8.34h-7.05v-8.34Zm.83-33.84h5.8v6.87h-5.8v-6.87Zm.42-33.35h4.56v5.39h-4.56v-5.39Zm.42-34.33h3.73v4.41h-3.73v-4.41Zm10.78,253.05h11.19v12.75h-11.19v-12.75Zm.42-33.84h10.36v11.77h-10.36v-11.77Zm.83-33.35h8.71v10.3h-8.71v-10.3Zm.42-33.84h7.88v9.32h-7.88v-9.32Zm.41-33.35h7.05v7.85h-7.05v-7.85Zm.42-33.84h6.22v6.87h-6.22v-6.87Zm.83-33.35h4.56v5.39h-4.56v-5.39Zm.41-33.84h3.73v4.41h-3.73v-4.41Zm11.19,218.73h10.37v11.77h-10.37v-11.77Zm.42-33.35h9.12v10.3h-9.12v-10.3Zm.83-33.84h7.88v9.32h-7.88v-9.32Zm.42-33.35h7.05v7.85h-7.05v-7.85Zm.41-33.84h5.8v6.87h-5.8v-6.87Zm.83-33.35h4.56v5.39h-4.56v-5.39Zm.42-33.84h3.73v4.41h-3.73v-4.41Zm12.44,151.54h7.88v9.32h-7.88v-9.32Zm.41-33.84h7.05v8.34h-7.05v-8.34Zm.42-33.35h5.8v6.87h-5.8v-6.87Zm.41-33.84h4.98v5.89h-4.98v-5.89Zm.83-33.35h3.73v4.41h-3.73v-4.41Zm13.27,84.35h5.8v6.87h-5.8v-6.87Zm.42-33.84h4.97v5.88h-4.97v-5.88Zm.41-33.35h3.73v4.41h-3.73v-4.41Z"/><path d="M1691.92,693.45V0h158.37c98.26,0,178.27,40.21,233.41,105.44l99.08,117.21c50.16,59.34,94.94,143.69,94.94,265.32,0,205-126.45,347.22-310.11,347.22h-155.88l-119.81-141.73Zm158.37-6.87c181.17,0,305.96-138.3,305.96-337.41S2031.05,9.81,1850.29,9.81h-150.08V686.58h150.08ZM1730.89,43.65h121.47c84.99,.49,156.71,34.82,205.22,96.61,42.29,52.96,66.33,125.06,66.33,209.41,0,177.53-107.38,299.65-267.41,303.08l-125.62,.49V43.65Zm13.27,24.52v-8.83h-4.98v8.83h4.98Zm1.66,37.27v-12.75h-6.63v12.75h6.63Zm102.4,537.5V314.36h-7.05v-10.3h7.05v-22.07h-9.12v-15.69h9.12v-17.16h-10.78v15.2h-13.27v-15.69h12.85v-17.17h-14.51v15.2h-13.27v-15.69h12.85v-17.17h-14.51v15.2h-13.27v-15.69h12.85v-17.16h-14.51v15.2h-13.27v-15.69h12.85v-17.16h-14.51v15.2h-13.27v-15.69h12.85v-17.17h-14.51v15.2h-13.27v-15.69h12.85v-17.17h-14.51v-17.16h-8.71v17.16h8.71v15.2h-8.71v22.56h6.63v10.3h-6.63v27.46h4.56v4.9h-4.56v419.8l109.04-.49Zm-87.48-519.84v-12.75h-10.78v12.75h10.78Zm-1.66-37.76v-8.34h-7.05v8.34h7.05Zm-7.05,113.29h8.71v10.3h-8.71v-10.3Zm2.07,37.76h4.15v4.9h-4.15v-4.9Zm20.31-168.21v-11.28h-9.54v11.28h9.54Zm1.24,72.58v-12.75h-10.78v12.75h10.78Zm-1.66-37.76v-8.34h-7.05v8.34h7.05Zm-7.05,112.8h8.71v10.79h-8.71v-10.79Zm2.07,38.25h4.15v4.9h-4.15v-4.9Zm21.56-95.63v-12.75h-10.78v12.75h10.78Zm-.83-72.09v-11.28h-9.54v11.28h9.54Zm-.83,34.33v-8.34h-7.05v8.34h7.05Zm-7.05,112.8h8.71v10.79h-8.71v-10.79Zm2.07,38.25h4.15v4.9h-4.15v-4.9Zm21.56-96.12v-12.26h-10.78v12.26h10.78Zm-.83-71.11v-11.28h-9.12v11.28h9.12Zm.83-36.29v-11.28h-9.54v11.28h9.54Zm-9.12,182.93h9.12v10.79h-9.12v-10.79Zm7.46-112.8v-8.34h-7.05v8.34h7.05Zm-4.97,151.05h4.15v4.9h-4.15v-4.9Zm21.56-96.12v-12.26h-10.78v12.26h10.78Zm0-70.62v-10.79h-9.54v10.79h9.54Zm.41-36.29v-11.28h-9.54v11.28h9.54Zm-2.07,69.64v-8.34h-7.46v8.34h7.46Zm-7.46,112.8h9.12v10.3h-9.12v-10.3Zm2.49,38.25h4.15v4.9h-4.15v-4.9Zm21.14-96.12v-12.26h-10.36v12.26h10.36Zm.83-70.13v-11.28h-9.54v11.28h9.54Zm-2.49,32.86v-8.34h-7.05v8.34h7.05Zm-7.05,112.8h9.12v10.3h-9.12v-10.3Zm9.54-181.94v-11.28h-9.12v11.28h9.12Zm.83-36.29v-11.28h-9.54v11.28h9.54Zm-7.88,256h4.15v5.39h-4.15v-5.39Zm19.49-95.63v-12.26h-8.29v12.26h8.29Zm0-37.27v-8.34h-6.63v8.34h6.63Zm3.32-68.66v-10.79h-9.54v10.79h9.54Zm0,36.78v-11.28h-9.54v11.28h9.54Zm.42-73.07v-11.28h-9.54v11.28h9.54Zm-8.29,255.51h4.15v4.9h-4.15v-4.9Zm271.97,7.85c0-46.1-7.46-88.27-21.14-125.55-31.92-26.97-66.33-36.78-126.86-36.78h-111.11v455.6c155.47-3.43,259.11-121.13,259.11-293.27Zm-248.75-208.92v-11.28h-9.54v11.28h9.54Zm0,36.78v-11.28h-9.54v11.28h9.54Zm0-73.07v-11.28h-9.12v11.28h9.12Zm.83-36.29v-11.28h-9.54v11.28h9.54Zm1.66,641.96v-3.92h-3.32v3.92h3.32Zm13.27-587.52v-10.79h-9.54v10.79h9.54Zm0,36.78v-11.28h-9.54v11.28h9.54Zm.42-73.07v-11.28h-9.54v11.28h9.54Zm.83,640.98v-3.92h-3.32v3.92h3.32Zm14.1-586.54v-11.28h-9.54v11.28h9.54Zm0,36.78v-11.28h-9.54v11.28h9.54Zm0-73.07v-11.28h-9.12v11.28h9.12Zm0-37.27v-9.32h-7.88v9.32h7.88Zm.83,643.92v-5.39h-4.56v5.39h4.56Zm-.42,32.86v-3.92h-3.32v3.92h3.32Zm15.34-621.36v-10.79h-9.54v10.79h9.54Zm0,36.78v-11.28h-9.54v11.28h9.54Zm-.41-74.05v-9.32h-7.88v9.32h7.88Zm.83,609.1v-3.92l-5.8,.98v2.94h5.8Zm-.83,33.35v-5.39h-4.56v5.39h4.56Zm-.42,33.35v-3.92h-3.32v3.92h3.32Zm16.17-620.38v-11.28h-9.54v11.28h9.54Zm0,36.78v-11.28h-9.54v11.28h9.54Zm-.83-74.05v-9.32h-7.46v9.32h7.46Zm0,608.12v-6.87h-5.39v6.87h5.39Zm-.42,33.35v-5.39h-4.56v5.39h4.56Zm-.41,33.84v-4.41h-3.73v4.41h3.73Zm17.41-619.4v-11.28h-9.54v11.28h9.54Zm-.83-37.76v-8.83h-7.88v8.83h7.88Zm-.42,573.3v-7.85h-7.05v7.85h7.05Zm-.41-610.57v-7.36h-6.22v7.36h6.22Zm-.42,644.41v-6.87h-5.39v6.87h5.39Zm-.41,33.35v-5.39h-4.56v5.39h4.56Zm-.42,33.84v-4.41h-3.73v4.41h3.73Zm18.24-618.42v-11.28h-9.54v11.28h9.54Zm-2.07,534.56v-7.85h-7.05v7.85h7.05Zm1.24-572.32v-9.32h-7.88v9.32h7.88Zm-2.07,606.16v-6.87h-5.39v6.87h5.39Zm.83-643.43v-7.36h-5.8v7.36h5.8Zm-1.24,676.78v-5.4h-4.56v5.4h4.56Zm-.41,33.84v-4.41h-3.73v4.41h3.73Zm16.58-117.21v-9.32h-7.88v9.32h7.88Zm-.83,33.35v-7.85h-6.63v7.85h6.63Zm-.41,33.35v-6.38h-5.8v6.38h5.8Zm-.42,33.84v-5.39h-4.56v5.39h4.56Zm3.73-638.03v-9.32h-7.88v9.32h7.88Zm-1.24-37.76v-6.87h-6.22v6.87h6.22Zm-.83-37.27v-1.47l-4.56-2.94v4.41h4.56Zm14.92,595.86v-10.3h-5.39l-3.32,1.47v8.83h8.71Zm-.83,33.35v-8.83h-7.46v8.83h7.46Zm-.41,33.84v-7.85h-6.63v7.85h6.63Zm-.42,33.35v-6.38h-5.8v6.38h5.8Zm-.41,33.84v-5.39h-4.56v5.39h4.56Zm4.56-637.05v-9.32h-7.88v9.32h7.88Zm-1.24-37.76v-6.87h-6.22v6.87h6.22Zm-.83-38.25v-4.9h-4.56v4.9h4.56Zm14.1,595.86v-10.79h-9.12v10.79h9.12Zm-.83,33.35v-8.83h-7.46v8.83h7.46Zm-.42,33.84v-7.85h-6.63v7.85h6.63Zm-.41,33.35v-6.38h-5.8v6.38h5.8Zm2.07-134.37v-3.92l-7.46,3.92h7.46Zm2.07-505.13v-7.36h-6.22v7.36h6.22Zm-.83-38.25v-4.9h-4.56v4.9h4.56Zm13.27,560.55v-11.77h-9.95v11.77h9.95Zm-.42,33.84v-10.79h-9.12v10.79h9.12Zm-.83,33.35v-9.32h-7.88v9.32h7.88Zm-.41,33.84v-8.34h-6.63v8.34h6.63Zm-.42,33.35v-6.87h-5.8v6.87h5.8Zm4.56-638.52v-7.36h-5.8v7.36h5.8Zm-.83-38.25v-4.9h-4.15v4.9h4.15Zm13.27,526.22v-13.24h-10.78v13.24h10.78Zm-.41,33.35v-11.77h-9.95v11.77h9.95Zm-.83,33.35v-10.3h-8.71v10.3h8.71Zm-.41,33.84v-9.32h-7.88v9.32h7.88Zm-.42,33.35v-7.85h-6.63v7.85h6.63Zm4.56-641.96v-4.9h-4.15v4.9h4.15Zm12.44,491.4v-14.22h-5.39l-6.63,4.9v9.32h12.02Zm-.41,33.35v-12.75h-10.78v12.75h10.78Zm-.83,33.84v-11.77h-9.54v11.77h9.54Zm-.42,33.35v-10.3h-8.71v10.3h8.71Zm-.41,33.84v-9.32h-7.88v9.32h7.88Zm-.42,33.35v-7.85h-6.63v7.85h6.63Zm8.29-640v-4.9h-4.15v4.9h4.15Zm9.12,455.6v-15.2l-12.85,11.77v3.43h12.85Zm-.41,33.84v-14.22h-12.02v14.22h12.02Zm-.42,33.35v-12.75h-11.19v12.75h11.19Zm-.83,33.84v-11.77h-9.54v11.77h9.54Zm-.41,33.35v-10.3h-8.71v10.3h8.71Zm-.42,33.84v-9.32h-7.88v9.32h7.88Zm17.41-184.4v-14.22c-4.56,4.9-9.12,9.81-14.1,14.22h14.1Zm-.41,33.35v-15.2h-12.85v15.2h12.85Zm-.42,33.84v-14.22h-12.02v14.22h12.02Zm-.41,33.35v-12.75h-11.19v12.75h11.19Zm-.83,33.84v-11.77h-9.95v11.77h9.95Zm-.42,33.35v-10.3h-8.71v10.3h8.71Zm-.41,25.5v-.98h-7.88v3.92l7.88-2.94Zm104.47-73.56v-16.67h14.1v6.38l5.39-6.87h-4.56v-15.69h13.27v3.92l4.56-6.38h-2.9v-14.22h11.61l3.32-5.88v-10.3h5.8c6.22-12.75,12.02-25.99,17-39.72h-7.46v-10.79h9.12v6.38c2.07-6.38,4.15-12.26,5.8-18.64v-3.92h1.24c2.07-8.34,4.15-16.67,5.8-25.5h-6.22v-8.34h6.63v7.36c5.39-27.46,8.29-56.4,8.29-86.8,0-118.68-43.12-200.09-92.45-258.45l-53.07-62.77c26.12,51.98,40.63,113.78,40.63,182.44,0,35.8-4.15,70.13-10.78,98.57h6.22v8.34h-6.63v-6.38c-3.73,16.67-8.71,32.86-14.51,48.06h7.88v10.79h-9.12v-7.85c-1.66,4.41-3.73,9.32-5.8,13.73h.83v11.77h-6.22l-7.46,14.22v3.43h-1.66c-7.46,13.24-15.75,25.5-24.88,37.27h13.27v15.69h-13.68v-15.2c-4.15,5.39-8.29,10.79-12.85,15.69h12.44v17.17h-14.1v16.67h14.1v-16.67h14.51v17.16h-14.1v16.18h14.1v-16.18h14.51v16.67h-14.1v16.67h14.1v-16.18h14.1v16.67h-13.68v16.67h14.1v-16.18h14.1v16.67h-13.68v16.67h14.1v-16.18h14.1v16.67h-13.68v16.67h14.1v-16.67h14.1v17.17h-13.68v16.67h14.1Zm-87.48-69.15v-15.2h-13.27v15.2h13.27Zm-.42,33.84v-14.22h-12.02v14.22h12.02Zm-.83,33.35v-12.75h-10.78v12.75h10.78Zm-.42,33.84v-11.77h-9.95v11.77h9.95Zm-.41,33.35v-10.3h-8.71v10.3h8.71Zm16.58-117.21v-15.2h-13.27v15.2h13.27Zm-.41,33.35v-13.73h-12.02v13.73h12.02Zm-.83,33.84v-12.75h-10.78v12.75h10.78Zm-.42,33.35v-11.28h-9.95v11.28h9.95Zm2.49-184.4h13.27v15.69h-13.27v-15.69Zm13.68,101.03v-15.69h-13.27v15.69h13.27Zm-12.85-134.38h12.02v14.22h-12.02v-14.22Zm12.02,167.72v-14.22h-11.61v14.22h11.61Zm-.42,33.84v-13.24h-10.78v13.24h10.78Zm-3.32,22.07h-7.05v3.92l7.05-3.92Zm5.39-173.12h13.27v15.69h-13.27v-15.69Zm13.68,101.03v-15.69h-13.27v15.69h13.27Zm-12.85-134.37h12.02v14.22h-12.02v-14.22Zm12.02,167.72v-14.22h-12.02v14.22h12.02Zm-11.61-201.56h11.19v13.24h-11.19v-13.24Zm1.66,235.4l9.54-5.88v-7.36h-10.78v13.24h1.24Zm11.61-151.05h13.27v15.69h-13.27v-15.69Zm.42-33.35h12.44v14.22h-12.44v-14.22Zm12.85,134.37v-15.69h-12.85v15.69h12.85Zm-.41,33.35v-14.22h-12.02v14.22h12.02Zm-11.61-201.56h10.78v13.24h-10.78v-13.24Zm.41-33.35h9.95v11.77h-9.95v-11.77Zm12.85,117.7h13.27v15.69h-13.27v-15.69Zm.42-33.35h12.44v14.22h-12.44v-14.22Zm12.85,134.38v-15.69h-12.85v15.69h12.85Zm-12.02-168.21h10.78v13.24h-10.78v-13.24Zm.41-33.35h9.95v11.77h-9.95v-11.77Zm.42-33.84h9.12v10.79h-9.12v-10.79Zm.41-33.35h8.29v9.32h-8.29v-9.32Zm12.02,184.89h13.27v15.69h-13.27v-15.69Zm.41-33.84h12.44v14.71h-12.44v-14.71Zm.42-33.35h11.19v13.24h-11.19v-13.24Zm.83-33.84h9.95v12.26h-9.95v-12.26Zm.41-33.35h9.12v10.79h-9.12v-10.79Zm.42-33.84h8.29v9.81h-8.29v-9.81Zm.83-33.35h6.63v8.34h-6.63v-8.34Zm.41-33.35h5.8v6.87h-5.8v-6.87Zm.42-69.15h3.73v4.41h-3.73v-4.41Zm0,35.31h4.97v5.88h-4.97v-5.88Zm14.51,336.43h-4.56v4.9l4.56-4.9Zm-4.15-50.51h13.27v15.69h-13.27v-15.69Zm.42-33.84h12.02v14.71h-12.02v-14.71Zm.41-33.35h11.19v13.24h-11.19v-13.24Zm.83-33.84h9.95v12.26h-9.95v-12.26Zm.42-33.35h9.12v10.79h-9.12v-10.79Zm.41-33.84h7.88v9.81h-7.88v-9.81Zm.42-33.35h7.05v8.34h-7.05v-8.34Zm.83-33.35h5.8v6.87h-5.8v-6.87Zm.42-33.84h4.97v5.89h-4.97v-5.89Zm.41-34.82h3.73v4.41h-3.73v-4.41Zm10.36,286.89h12.02v14.71h-12.02v-14.71Zm.42-33.35h11.19v13.24h-11.19v-13.24Zm.41-33.84h10.37v12.26h-10.37v-12.26Zm.83-33.35h8.71v10.79h-8.71v-10.79Zm.42-33.84h7.88v9.81h-7.88v-9.81Zm.41-33.35h7.05v8.34h-7.05v-8.34Zm.83-33.84h5.8v6.87h-5.8v-6.87Zm.41-33.35h4.56v5.39h-4.56v-5.39Zm.42-34.33h3.73v4.41h-3.73v-4.41Zm10.78,253.05h11.19v12.75h-11.19v-12.75Zm.42-33.84h10.36v11.77h-10.36v-11.77Zm.83-33.35h8.71v10.3h-8.71v-10.3Zm.41-33.84h7.88v9.32h-7.88v-9.32Zm.42-33.35h7.05v7.85h-7.05v-7.85Zm.42-33.84h6.22v6.87h-6.22v-6.87Zm.83-33.35h4.56v5.39h-4.56v-5.39Zm.41-33.84h3.73v4.41h-3.73v-4.41Zm11.19,218.73h10.36v11.77h-10.36v-11.77Zm.41-33.35h9.12v10.3h-9.12v-10.3Zm.83-33.84h7.88v9.32h-7.88v-9.32Zm.42-33.35h7.05v7.85h-7.05v-7.85Zm.41-33.84h5.8v6.87h-5.8v-6.87Zm.83-33.35h4.56v5.39h-4.56v-5.39Zm.42-33.84h3.73v4.41h-3.73v-4.41Zm12.44,151.54h7.88v9.32h-7.88v-9.32Zm.41-33.84h7.05v8.34h-7.05v-8.34Zm.42-33.35h5.8v6.87h-5.8v-6.87Zm.41-33.84h4.98v5.89h-4.98v-5.89Zm.83-33.35h3.73v4.41h-3.73v-4.41Zm13.27,84.35h5.8v6.87h-5.8v-6.87Zm.42-33.84h4.97v5.88h-4.97v-5.88Zm.41-33.35h3.73v4.41h-3.73v-4.41Z"/><path d="M188.63,1812.27l-92.87-110.34C36.48,1635.72,0,1539.11,0,1429.25c0-188.81,112.35-357.02,296.01-357.02,65.5,0,123.96,19.13,169.56,51.98l119.4,141.24v65.23c-33.17-30.9-99.91-82.39-179.93-82.39-161.69,0-251.24,142.22-251.24,302.1-.83,63.75,9.54,113.29,31.51,155.46,34.41,19.13,74.21,30.41,119.81,30.41,57.63,0,103.23-17.17,158.78-55.91l121.06,139.28v54.44c-52.24,45.12-128.11,53.95-175.78,53.95-103.65,0-164.59-49.53-220.56-115.74Zm270.72-77.98v-39.23c-52.24,35.31-100.33,51-154.22,51-155.88,0-264.5-134.38-264.5-314.85,0-162.82,93.7-311.91,259.53-311.91,72.55,0,125.62,27.46,159.2,53.46v-41.2c-43.95-31.88-102.4-49.53-163.35-49.53-179.51,0-287.72,161.35-287.72,347.22,0,199.6,123.13,354.08,283.57,354.08,46.02,0,116.91-11.77,167.49-49.04Zm-313.84-183.91c0-35.31,4.56-70.13,13.27-102.99h-5.39v-8.83h7.46v.49c4.15-14.22,9.12-28.44,15.34-42.18h-9.54v-11.28h9.95v9.81c2.49-4.9,4.56-10.3,7.46-15.2h-3.32v-12.75h9.95l3.73-6.38v-11.77h7.46l6.63-9.81v-7.85h5.8l8.29-9.81v-8.34h7.46l6.22-6.38v-9.81h-13.68v16.18h-14.92v-17.16h-14.51v-17.17h-14.51v-17.16h-14.51v-17.17h-14.51v-17.66h13.68v-16.18h-13.68v16.18h-14.92v-17.16h-12.44l-2.49,2.94v13.73h-10.78l-4.15,5.88v10.3h-6.63c-10.78,17.17-19.9,37.27-27.36,56.89h2.9v10.3h-6.22c-4.56,13.73-8.29,27.95-11.19,42.67h1.66v7.85h-2.9c-4.15,23.05-6.22,46.59-6.22,70.62,0,112.8,44.36,214.31,123.96,266.79-19.49-40.7-28.19-85.82-27.36-147.62Zm-93.28-162.33h5.39v6.38h-5.39v-6.38Zm.41,35.31h4.15v4.9h-4.15v-4.9Zm12.85-88.27h7.46v8.83h-7.46v-8.83Zm.83,35.31h6.22v7.36h-6.22v-7.36Zm.41,34.82h5.39v6.38h-5.39v-6.38Zm.41,35.31h4.15v4.9h-4.15v-4.9Zm12.02-158.9h9.54v11.77h-9.54v-11.77Zm.41,35.31h8.71v10.3h-8.71v-10.3Zm.83,35.31h7.46v8.83h-7.46v-8.83Zm.41,35.31h6.22v7.36h-6.22v-7.36Zm.41,35.31h5.39v5.88h-5.39v-5.88Zm.83,34.82h4.15v4.9h-4.15v-4.9Zm11.19-193.72h10.78v12.75h-10.78v-12.75Zm.41,35.31h9.95v11.28h-9.95v-11.28Zm.83,35.31h8.29v9.81h-8.29v-9.81Zm.41,34.82h7.46v8.83h-7.46v-8.83Zm.41,35.31h6.22v7.36h-6.22v-7.36Zm.83,35.31h4.98v5.88h-4.98v-5.88Zm.41,34.82h4.15v4.9h-4.15v-4.9Zm10.36-229.03h12.44v14.71h-12.44v-14.71Zm.83,35.31h10.78v12.75h-10.78v-12.75Zm.41,35.31h9.95v11.28h-9.95v-11.28Zm.83,35.31h8.29v9.81h-8.29v-9.81Zm.41,34.82h7.46v8.83h-7.46v-8.83Zm.41,35.31h6.63v7.36h-6.63v-7.36Zm.83,35.31h4.97v5.89h-4.97v-5.89Zm.41,35.31h4.15v4.9h-4.15v-4.9Zm9.95-264.83h13.68v16.18h-13.68v-16.18Zm.41,35.31h12.44v14.71h-12.44v-14.71Zm.83,35.31h10.78v13.24h-10.78v-13.24Zm.41,35.31h9.95v11.77h-9.95v-11.77Zm.83,35.31h8.71v10.3h-8.71v-10.3Zm.42,35.31h7.46v8.83h-7.46v-8.83Zm.83,34.82h6.22v7.85h-6.22v-7.85Zm.41,35.31h5.39v6.38h-5.39v-6.38Zm.41,35.31h4.15v4.9h-4.15v-4.9Zm23.22-299.64v-16.67h-11.19l-2.49,2.45v14.22h13.68Zm-13.27,35.31h13.68v15.69h-13.68v-15.69Zm.83,34.82h12.02v14.71h-12.02v-14.71Zm.41,35.31h11.19v13.24h-11.19v-13.24Zm.83,35.31h9.54v11.77h-9.54v-11.77Zm.41,35.31h8.71v10.3h-8.71v-10.3Zm.41,35.31h7.46v8.83h-7.46v-8.83Zm.83,35.31h6.22v7.36h-6.22v-7.36Zm.41,34.82h5.39v6.38h-5.39v-6.38Zm.41,35.31h4.15v4.9h-4.15v-4.9Zm9.95-264.33h13.68v15.69h-13.68v-15.69Zm12.85-70.62v-14.71h-6.63l-5.8,4.41v10.3h12.44Zm-12.02,105.93h12.02v14.22h-12.02v-14.22Zm.41,35.31h11.19v12.75h-11.19v-12.75Zm.83,34.82h9.54v11.77h-9.54v-11.77Zm.41,35.31h8.71v10.3h-8.71v-10.3Zm25.7-158.9v-16.18h-13.68v16.18h13.68Zm-13.68,35.31h13.68v16.18h-13.68v-16.18Zm12.85-70.62v-14.71h-12.44v14.71h12.44Zm-12.02,105.93h12.44v14.22h-12.44v-14.22Zm11.19-141.24v-10.79l-10.78,6.87v3.92h10.78Zm-10.36,176.55h10.78v12.75h-10.78v-12.75Zm26.53-88.77v-16.18h-13.68v16.18h13.68Zm-.83-35.31v-14.71h-12.44v14.71h12.44Zm-12.44,70.62h13.27v16.18h-13.27v-16.18Zm.41,35.31h12.44v14.71h-12.44v-14.71Zm11.61-141.24v-13.24h-11.19v13.24h11.19Zm15.75,87.78v-16.18h-13.68v16.18h13.68Zm-.83-35.31v-14.71h-12.44v14.71h12.44Zm-12.44,70.62h13.68v16.18h-13.68v-16.18Zm12.02-105.93v-12.75h-11.19v12.75h11.19Zm-.83-35.31v-11.28h-9.54v11.28h9.54Zm16.58,123.58v-16.67h-13.68v16.67h13.68Zm-.41-35.31v-14.71h-12.44v14.71h12.44Zm-.83-35.31v-13.24h-11.19v13.24h11.19Zm-.83-35.31v-11.77h-9.54v11.77h9.54Zm-.41-35.31v-10.3h-6.22c-.83,.49-1.66,.49-2.49,.98v9.32h8.71Zm16.58,123.09v-14.71h-12.44v14.71h12.44Zm-.83-35.31v-13.24h-11.19v13.24h11.19Zm-.41-35.31v-11.77h-9.95v11.77h9.95Zm-.83-35.31v-10.3h-8.29v10.3h8.29Zm14.92,123.09l1.66-1.47v-13.24h-12.44v14.71h10.78Zm.83-35.31v-13.24h-10.78v13.24h10.78Zm-.41-35.31v-11.77h-9.95v11.77h9.95Zm-.83-35.31v-9.81h-8.29v9.81h8.29Zm-.41-35.31v-8.34h-7.46v8.34h7.46Zm16.58,123.09v-13.24h-11.19v13.24h11.19Zm-.83-35.31v-11.28h-9.95v11.28h9.95Zm-.42-35.31v-9.81h-8.71v9.81h8.71Zm-.83-35.31v-8.34h-7.46v8.34h7.46Zm-.83-35.31v-3.92l-5.8,.98v2.94h5.8Zm16.58,123.1v-11.28h-9.54v11.28h9.54Zm-.41-35.31v-9.81h-8.71v9.81h8.71Zm-.83-34.82v-8.83h-7.05v8.83h7.05Zm-.83-35.8v-6.87h-5.8v6.87h5.8Zm16.58,112.31v-.49h-9.54v5.39l9.54-4.9Zm-.41-24.03v-10.3h-8.71v10.3h8.71Zm-.83-35.31v-8.83h-7.05v8.83h7.05Zm-.41-35.31v-6.87h-5.8v6.87h5.8Zm-.83-35.31v-5.39h-4.56v5.39h4.56Zm16.58,123.09v-10.3h-8.29v10.3h8.29Zm-.83-35.31v-8.34h-7.05v8.34h7.05Zm-.41-35.31v-6.87h-5.8v6.87h5.8Zm-.83-35.31v-5.39h-4.56v5.39h4.56Zm8.71,652.75v-4.41h-3.73v4.41h3.73Zm7.46-564.96v-8.34h-7.46v8.34h7.46Zm-.83-35.31v-6.87h-5.8v6.87h5.8Zm-.83-35.31v-5.39h-4.15v5.39h4.15Zm8.29,652.26v-4.41h-3.73v4.41h3.73Zm7.05-599.78v-6.87h-5.8v6.87h5.8Zm-.83-35.31v-4.9h-4.15v4.9h4.15Zm8.71,619.4v-6.38h-4.97v6.38h4.97Zm-.83,32.37v-4.41h-3.73v4.41h3.73Zm7.46-599.29v-6.87h-5.8v6.87h5.8Zm-.41-35.31v-4.9h-4.56v4.9h4.56Zm8.29,586.05v-3.92l-6.22,1.47v2.45h6.22Zm-.41,32.86v-5.88h-4.98v5.88h4.98Zm-.83,32.37v-4.41h-3.73v4.41h3.73Zm7.46-633.62v-5.39h-4.56v5.39h4.56Zm7.88,585.07v-7.36h-6.22v7.36h6.22Zm-.41,32.86v-5.89h-4.98v5.89h4.98Zm-.83,32.37v-4.41h-3.73v4.41h3.73Zm7.88-633.13v-5.39h-4.56v5.39h4.56Zm8.29,551.72v-8.34h-7.46v8.34h7.46Zm-.83,32.86v-7.36h-6.22v7.36h6.22Zm-.41,32.86v-5.88h-4.98v5.88h4.98Zm-.83,32.37v-4.41h-3.73v4.41h3.73Zm16.17-81.41v-8.34h-7.46v8.34h7.46Zm-.83,32.86v-7.36h-6.22v7.36h6.22Zm-.41,32.86v-5.88h-4.98v5.88h4.98Zm-.83,32.37v-4.41h-3.73v4.41h3.73Zm16.58-113.78v-10.3h-8.71v10.3h8.71Zm-.41,32.37v-8.34h-7.46v8.34h7.46Zm-.83,32.86v-7.36h-6.22v7.36h6.22Zm-.41,32.86v-5.89h-4.98v5.89h4.98Zm16.58-114.27v-11.28h-2.9l-7.05,2.94v8.34h9.95Zm-.83,32.86v-10.3h-8.29v10.3h8.29Zm-.41,32.37v-8.34h-7.46v8.34h7.46Zm-.83,32.86v-7.36h-6.22v7.36h6.22Zm-.41,32.86v-5.88h-4.98v5.88h4.98Zm16.58-114.27v-11.28h-9.95v11.28h9.95Zm-.83,32.86v-10.3h-8.29v10.3h8.29Zm-.41,32.86v-8.83h-7.46v8.83h7.46Zm1.66-98.08v-4.9l-8.71,4.9h8.71Zm-2.49,130.45v-7.36h-6.22v7.36h6.22Zm16.58-113.78v-13.24h-10.78v13.24h10.78Zm-.41,32.37v-11.28h-9.95v11.28h9.95Zm-.83,32.86v-10.3h-8.29v10.3h8.29Zm-.41,32.86v-8.83h-7.46v8.83h7.46Zm-.83,32.37v-7.36h-6.22v7.36h6.22Zm121.06-83.37l-109.04-125.06v42.18l4.98,5.39h-12.02v14.22h12.44v-13.73l13.68,16.18h-12.02v14.22h12.44v-13.73l13.68,16.18h-11.61v14.22h12.02v-13.73l14.1,16.18h-12.02v14.22h12.02v-14.22l61.36,70.62v-43.16Zm-104.47-30.41v-13.24h-10.78v13.24h10.78Zm-.41,32.37v-11.28h-9.95v11.28h9.95Zm-.83,32.86v-10.3h-8.29v10.3h8.29Zm-.41,32.86v-8.83h-7.46v8.83h7.46Zm106.13-621.85l-109.04-128.98v46.59l109.04,125.55v-43.16Zm-90.38,540.44v-13.24h-10.78v13.24h10.78Zm-.41,32.37v-11.28h-9.95v11.28h9.95Zm-.83,32.86v-10.3h-8.29v10.3h8.29Zm-.41,32.86v-8.83h-7.46v8.83h7.46Zm15.75-81.41v-13.24h-10.78v13.24h10.78Zm-.41,32.37v-11.28h-9.95v11.28h9.95Zm-.83,32.86v-10.3h-8.29v10.3h8.29Zm15.34-48.55v-13.24h-10.78v13.24h10.78Zm-.41,32.37v-11.28h-9.95v11.28h9.95Zm-.83,27.46v-4.9h-8.29v7.36l8.29-2.45Zm16.17-76.01v-14.22h-12.02v14.22h12.02Zm-.83,32.86v-13.24h-10.78v13.24h10.78Zm-.41,32.37v-11.28h-9.95v11.28h9.95Zm15.34-48.55v-14.22h-12.02v14.22h12.02Zm-.83,32.86v-12.75h-10.78v12.75h10.78Zm14.92-16.18v-14.22h-12.02v14.22h12.02Zm-.83,22.56v-2.45h-10.78v8.83l10.78-6.38Zm9.54-5.88l5.39-3.92v-10.3h-12.02v14.22h6.63Z"/><path d="M637.63,1777.45v-693.45h199.83c71.31,0,125.62,27.46,162.52,71.11l94.94,111.82c31.92,37.76,53.9,75.03,53.9,139.28,0,85.82-44.36,157.42-115.67,187.83l174.54,325.15h-55.14l-168.32-139.77-84.16-155.46h-97.84v295.23h-46.43l-118.16-141.73Zm38.97-6.87v-295.23h152.57l159.61,295.23h41.04l-164.59-300.14c99.5-10.3,166.25-88.77,166.25-193.22,0-45.12-12.85-83.86-36.9-115.25-35.24-45.12-91.21-68.17-157.13-68.17h-191.54v676.78h30.68Zm0-643.43h159.2c103.65,0,162.93,54.44,164.17,151.05,0,99.06-65.92,162.82-166.66,162.82h-156.71v-313.87Zm12.02,464.43v-5.39h-4.56v5.39h4.56Zm3.73-436.47v-13.73h-7.46v13.73h7.46Zm101.57,276.1v-68.17h-2.9v-5.39h2.9v-26.48h-5.8v-12.75h5.8v-20.11h-8.71v-17.66h-14.92v-17.66h-14.92v-17.66h-14.93v-18.15h-15.34v-17.65h-14.92v-17.66h-14.92v-18.15h-10.36v20.11h8.71v12.75h-8.71v224.61h109.03Zm-101.57,77v-13.73h-7.46v13.73h7.46Zm101.57,207.94h-2.9v-5.39h2.9v-26.48h-5.8v-12.75h5.8v-20.11h-8.71v-17.66h-14.92v-17.66h-14.92v-17.66h-14.93v-18.15h-15.34v-17.65h-14.92v-17.66h-14.92v-18.15h-10.36v20.11h8.71v12.75h-8.71v220.69l109.03,128.98v-193.22Zm-108.21-483.06h4.56v5.39h-4.56v-5.39Zm21.97-60.32v-13.73h-11.61v13.73h11.61Zm0,353.1v-13.73h-11.61v13.73h11.61Zm-9.95-314.36h10.78v12.75h-10.78v-12.75Zm0,353.1h10.78v12.75h-10.78v-12.75Zm1.66,39.23h4.56v5.39h-4.56v-5.39Zm1.66-353.1h4.56v5.39h-4.56v-5.39Zm12.85,245.21v-6.87h-5.8v6.87h5.8Zm8.71-305.04v-14.22h-11.61v14.22h11.61Zm0,353.1v-14.22h-11.61v14.22h11.61Zm-9.95-314.36h10.78v12.26h-10.78v-12.26Zm0,353.1h10.78v12.26h-10.78v-12.26Zm2.07,38.74h4.56v5.39h-4.56v-5.39Zm9.12-471.78v-9.32h-7.88v9.32h7.88Zm-7.88,118.68h4.56v5.39h-4.56v-5.39Zm13.27,245.7v-6.87h-5.8v6.87h5.8Zm8.71-305.53v-13.73h-12.02v13.73h12.02Zm0,353.1v-13.73h-12.02v13.73h12.02Zm-9.95-314.36h10.36v12.26h-10.36v-12.26Zm0,353.1h10.36v12.26h-10.36v-12.26Zm2.07,38.74h4.56v5.39h-4.56v-5.39Zm.83-353.1h4.56v5.39h-4.56v-5.39Zm8.29-118.19v-9.32h-7.88v9.32h7.88Zm6.22,329.07v-8.34h-7.05v8.34h7.05Zm-.41,35.31v-6.87h-5.8v6.87h5.8Zm7.88-306.02v-13.73h-11.61v13.73h11.61Zm0,353.1v-13.73h-11.61v13.73h11.61Zm-9.95-314.36h10.78v12.75h-10.78v-12.75Zm0,353.1h10.78v12.75h-10.78v-12.75Zm2.9,39.23h4.15v5.39h-4.15v-5.39Zm9.95-506.6v-11.28h-9.54v11.28h9.54Zm-9.54,153.5h4.15v5.39h-4.15v-5.39Zm7.88-118.19v-9.32h-7.46v9.32h7.46Zm6.63,329.07v-8.34h-7.05v8.34h7.05Zm-.83,35.8v-6.87h-5.8v6.87h5.8Zm7.88-307v-13.73h-11.61v13.73h11.61Zm0,353.1v-13.73h-11.61v13.73h11.61Zm-9.95-314.36h10.78v12.75h-10.78v-12.75Zm0,353.1h10.78v12.75h-10.78v-12.75Zm2.9-313.87h4.56v5.39h-4.56v-5.39Zm0,353.1h4.56v5.39h-4.56v-5.39Zm10.36-506.11v-11.28h-9.54v11.28h9.54Zm-1.24,35.31v-8.83h-7.88v8.83h7.88Zm6.22,292.78v-8.34h-7.05v8.34h7.05Zm0,36.29v-8.34h-7.05v8.34h7.05Zm-.41,35.31v-6.87h-5.8v6.87h5.8Zm7.05-306.51v-13.73h-11.61v13.73h11.61Zm0,353.1v-13.73h-11.61v13.73h11.61Zm-9.54-314.36h10.36v12.26h-10.36v-12.26Zm0,353.1h10.36v12.26h-10.36v-12.26Zm2.9-314.36h4.56v5.39h-4.56v-5.39Zm0,353.1h4.56v5.39h-4.56v-5.39Zm9.95-505.62v-11.28h-9.12v11.28h9.12Zm.83-36.29v-11.28h-9.54v11.28h9.54Zm-1.66,71.6v-9.32h-7.88v9.32h7.88Zm6.22,292.78v-8.34h-7.05v8.34h7.05Zm0,36.78v-8.34h-7.05v8.34h7.05Zm-.41,35.31v-6.87h-5.8v6.87h5.8Zm2.9-307.49v-13.73h-7.46v13.73h7.46Zm0,353.1v-13.73h-7.46v13.73h7.46Zm7.88-427.64v-10.79h-9.54v10.79h9.54Zm.41-36.29v-11.28h-9.54v11.28h9.54Zm-1.24,72.09v-9.32h-7.88v9.32h7.88Zm5.8,256v-8.34h-7.05v8.34h7.05Zm0,36.29v-8.34h-7.05v8.34h7.05Zm0,36.29v-8.34h-7.05v8.34h7.05Zm0,35.8v-6.87h-5.8v6.87h5.8Zm26.53-174.1c96.6,0,158.37-59.83,158.37-153.01v-3.92c-13.27-2.45-26.12-3.43-38.56-3.43h-150.91v160.37h31.09Zm-16.17-207.94v-11.28h-9.54v11.28h9.54Zm0-36.29v-11.28h-9.12v11.28h9.12Zm.83-36.29v-11.28h-9.54v11.28h9.54Zm-1.66,108.38v-9.32h-7.88v9.32h7.88Zm5.8,256v-8.34h-7.05v8.34h7.05Zm0,36.78v-8.34h-7.05v8.34h7.05Zm.41,36.29v-8.34h-7.05v8.34h7.05Zm10.36-383.02v-10.79h-9.54v10.79h9.54Zm0,36.78v-11.28h-9.54v11.28h9.54Zm.41-73.07v-11.28h-9.54v11.28h9.54Zm4.15,364.38v-8.34h-7.05v8.34h7.05Zm0,36.29v-8.34h-7.05v8.34h7.05Zm.41,36.78v-8.34h-7.05v8.34h7.05Zm10.36-383.02v-11.28h-9.54v11.28h9.54Zm0,36.78v-11.28h-9.54v11.28h9.54Zm0-73.07v-11.28h-9.12v11.28h9.12Zm0-37.27v-9.32h-7.88v9.32h7.88Zm4.56,402.14v-8.34h-7.05v8.34h7.05Zm.41,36.29v-8.34h-7.05v8.34h7.05Zm10.78-383.02v-10.79h-9.54v10.79h9.54Zm0,36.78v-11.28h-9.54v11.28h9.54Zm-.41-74.05v-9.32h-7.88v9.32h7.88Zm4.56,401.65v-4.41l-2.07-3.92h-4.97v8.34h7.05Zm.41,36.78v-8.34h-7.05v8.34h7.05Zm10.78-383.02v-11.28h-9.54v11.28h9.54Zm0,36.78v-11.28h-9.54v11.28h9.54Zm-2.07-110.34v-7.36h-6.22v7.36h6.22Zm1.24,36.29v-9.32h-7.46v9.32h7.46Zm2.07,402.14l-3.73-6.87v6.87h3.73Zm9.12-98.08v-6.38h-5.39v3.92l1.66,2.45h3.73Zm5.39-248.15v-11.28h-9.54v11.28h9.54Zm-.83-37.76v-8.83h-7.88v8.83h7.88Zm-.83-37.27v-7.36h-6.22v7.36h6.22Zm12.02,341.82v-8.83h-7.05v8.83h7.05Zm4.98-248.64v-11.28h-9.54v11.28h9.54Zm-.83-37.76v-9.32h-7.88v9.32h7.88Zm-1.24-37.27v-7.36h-5.8v7.36h5.8Zm2.07,344.27h-3.32l3.32,5.88v-5.88Zm11.19-1.47v-11.77h-9.54v11.77h9.54Zm-3.32-38.74v-4.9h-4.15v4.9h4.15Zm161.27,208.92h-2.07v-3.43l-9.12-17.16v3.43h-6.22v-6.87h4.15l-31.09-58.36h-6.22v-11.28l-3.73-6.87h-12.02v-13.24h-15.75v13.24h-12.44v-14.71h12.44v-15.2h-12.85v13.73h-14.92v-17.17h-15.75v-16.18h-15.34v14.71h-12.85v-15.2h12.85v-16.18h-13.68v14.71h-8.71l31.51,57.38h2.9v5.39l8.71,15.69v-2.94h5.39v6.87h-3.32l83.33,152.03h-1.66l148.42,126.53-111.94-208.92Zm-154.22-457.07v-9.32h-7.88v9.32h7.88Zm-1.24-37.76v-6.87h-6.22v6.87h6.22Zm-.83-37.76v-5.39h-4.15v5.39h4.15Zm10.78,307.49v-6.87h-5.8v6.87h5.8Zm-.42,34.33v-5.39h-4.56v5.39h4.56Zm7.05-248.15v-9.32h-7.88v9.32h7.88Zm-1.24-37.76v-6.87h-6.22v6.87h6.22Zm-.83-38.25v-4.9h-4.56v4.9h4.56Zm12.44,275.12v-7.36c-3.32,2.45-6.63,4.41-9.95,5.88v1.47h9.95Zm-9.54,107.4h11.19v13.73h-11.19v-13.73Zm7.88-74.54v-7.85h-6.63v7.85h6.63Zm-.42,34.33v-6.38h-5.39v6.38h5.39Zm6.22-285.42v-7.36h-6.22v7.36h6.22Zm-.83-38.25v-4.9h-4.56v4.9h4.56Zm11.19,273.65v-11.28h-9.54v11.28h9.54Zm-8.71,108.87h9.95v11.77h-9.95v-11.77Zm7.46-75.52v-8.34h-7.05v8.34h7.05Zm1.24,34.33v-8.34h-7.05v8.34h7.05Zm1.24-101.03v-2.45l-2.9,2.45h2.9Zm3.32-183.91v-7.36h-5.8v7.36h5.8Zm-.83-38.25v-4.9h-4.15v4.9h4.15Zm12.44,239.32v-14.22h-12.02v14.22h12.02Zm-1.24,33.84v-11.77h-9.95v11.77h9.95Zm-1.24,33.35v-8.83h-7.05v8.83h7.05Zm-7.05,76.01h8.71v10.3h-8.71v-10.3Zm10.36-40.21v-11.28h-9.95v11.28h9.95Zm-7.88,77.49h4.15v5.39h-4.15v-5.39Zm110.69-91.71l.83-.98v-15.2h13.27l2.49-2.94v-13.24h9.12l6.63-11.77v-4.41h2.07c6.63-13.24,11.61-27.46,14.92-42.67h-.41v-7.36h2.07c2.9-13.73,4.15-28.44,4.15-43.16,0-61.3-20.31-95.63-51.41-132.41l-63.85-75.03c9.54,23.54,14.51,49.53,14.51,78.47,0,17.17-1.66,33.84-4.97,49.53h2.49v7.36h-4.15c-4.15,15.2-9.12,29.92-16.17,43.16h7.46v11.77h-9.95v-6.87c-2.07,3.92-4.15,7.85-6.63,11.28h2.49v14.22h-12.02l-1.66,1.96v16.67h-13.27v16.67h14.1v-16.18h14.1v17.16h-13.68v16.67h14.51v-16.18h14.1v16.67h-13.68v17.16h14.1v-16.18h14.1v16.67h-13.68v16.67h14.51v-16.18h14.1v17.16h-13.68v16.67h14.51v-16.18h14.1v16.67h-13.68v17.16h14.1v-16.18h14.1v16.67h-13.68v16.67h13.68Zm-89.13-71.11v-14.22h-12.02v14.22h12.02Zm-.83,33.35v-11.28h-9.95v11.28h9.95Zm-1.24,33.84v-8.83h-7.46v8.83h7.46Zm-6.63,76.51h7.88v8.83h-7.88v-8.83Zm23.63-126.04v-14.22h-12.02v14.22h12.02Zm-1.24,33.35v-11.28h-9.54v11.28h9.54Zm-9.12,73.07h11.19v13.24h-11.19v-13.24Zm7.46-40.21v-7.36h-6.22v7.36h6.22Zm-4.97,77.98h6.22v7.36h-6.22v-7.36Zm9.95-228.04h12.02v14.22h-12.02v-14.22Zm12.85,101.03v-14.22h-12.44v14.22h12.44Zm-1.24,33.84v-11.77h-9.95v11.77h9.95Zm-8.71,73.56h9.95v11.77h-9.95v-11.77Zm7.05-40.7v-7.85h-6.63v7.85h6.63Zm-4.56,78.47h4.98v6.38h-4.98v-6.38Zm9.54-228.54h12.02v14.22h-12.02v-14.22Zm12.44,101.03v-14.22h-12.02v14.22h12.02Zm-11.61-134.87h9.95v11.77h-9.95v-11.77Zm10.36,168.21v-11.28h-9.54v11.28h9.54Zm-9.12-202.05h7.88v9.81h-7.88v-9.81Zm1.24,277.09h8.71v9.81h-8.71v-9.81Zm2.07,37.27h4.15v4.9h-4.15v-4.9Zm9.12-229.03h12.02v14.22h-12.02v-14.22Zm12.85,101.03v-14.71h-12.02v14.71h12.02Zm-11.61-134.87h9.95v11.77h-9.95v-11.77Zm.83-33.84h8.29v9.32h-8.29v-9.32Zm9.54,194.21v-3.92h-9.54v9.32c3.32-1.47,6.63-3.43,9.54-5.39Zm-8.71-228.04h6.63v7.36h-6.63v-7.36Zm1.24-33.84h4.15v4.9h-4.15v-4.9Zm0,345.25h7.46v8.34h-7.46v-8.34Zm10.78-192.73h12.02v14.22h-12.02v-14.22Zm9.12,101.03l3.32-2.45v-11.77h-12.02v14.22h8.71Zm-7.88-134.86h9.95v12.26h-9.95v-12.26Zm.83-33.35h7.88v9.32h-7.88v-9.32Zm.83-34.33h6.22v7.85h-6.22v-7.85Zm.83-33.84h4.56v5.39h-4.56v-5.39Zm11.19,153.01h12.02v14.22h-12.02v-14.22Zm.83-33.84h9.95v11.77h-9.95v-11.77Zm.83-33.84h8.29v9.81h-8.29v-9.81Zm1.24-33.84h6.22v7.36h-6.22v-7.36Zm.83-33.84h4.56v5.39h-4.56v-5.39Zm10.78,153.01h12.02v14.22h-12.02v-14.22Zm1.24-33.84h9.95v11.77h-9.95v-11.77Zm.83-33.84h8.29v9.32h-8.29v-9.32Zm.83-33.84h6.22v7.36h-6.22v-7.36Zm.83-33.84h4.56v4.9h-4.56v-4.9Zm12.02,118.68h10.36v12.26h-10.36v-12.26Zm1.24-33.84h7.88v9.81h-7.88v-9.81Zm.83-33.84h6.22v7.36h-6.22v-7.36Zm.83-33.84h4.56v5.39h-4.56v-5.39Zm12.85,85.33h8.29v9.81h-8.29v-9.81Zm1.24-33.84h6.22v7.36h-6.22v-7.36Zm.83-33.84h4.56v5.39h-4.56v-5.39Zm14.51,17.16h4.56v5.39h-4.56v-5.39Z"/><path d="M1209.34,1777.45v-693.45h379.76l119.81,141.73v51h-330.84v119.17h155.47l119.81,141.73v51h-275.28v137.81h223.46l119.81,141.73v51h-388.05l-123.96-141.73Zm386.39-6.87v-34.33h-347.42v-296.21h279.43v-34.33h-279.43v-277.58h334.98v-34.33h-365.66v676.78h378.1Zm-349.08,22.07v-6.38h-5.8v6.38h5.8Zm17.41-631.66v-13.73h-7.46v13.73h7.46Zm105.72,234.91v-58.85h-9.95v-12.75h9.95v-20.11h-12.85v-17.66h-14.92v-17.66h-14.92v-17.65h-14.92v-18.15h-15.34v-17.66h-14.92v-17.66h-14.92v-18.15h-10.36v20.11h8.71v12.75h-8.71v183.42h113.18Zm-105.72,77.49v-13.73h-7.46v13.73h7.46Zm105.72,253.05v-77h-9.95v-12.75h9.95v-20.11h-12.85v-17.65h-14.92v-17.66h-14.92v-17.66h-14.92v-18.15h-15.34v-17.66h-14.92v-17.65h-14.92v-18.15h-10.36v20.11h8.71v12.75h-8.71v201.56h113.18Zm-107.79,84.35v-5.88h-4.98v5.88h4.98Zm-4.56-571.83h4.56v5.39h-4.56v-5.39Zm0,312.4h4.56v5.39h-4.56v-5.39Zm21.97-372.72v-13.73h-11.61v13.73h11.61Zm0,312.4v-13.73h-11.61v13.73h11.61Zm-9.95-273.65h10.78v12.75h-10.78v-12.75Zm0,312.4h10.78v12.75h-10.78v-12.75Zm9.54,263.84v-8.34h-7.05v8.34h7.05Zm-.83,36.29v-6.38h-5.8v6.38h5.8Zm-5.39-573.3h4.56v5.39h-4.56v-5.39Zm0,312.4h4.56v5.39h-4.56v-5.39Zm21.56-372.23v-14.22h-11.61v14.22h11.61Zm0,312.4v-14.22h-11.61v14.22h11.61Zm-9.95-273.65h10.78v12.26h-10.78v-12.26Zm0,312.4h10.78v12.26h-10.78v-12.26Zm3.32-273.65h4.56v5.39h-4.56v-5.39Zm0,312.4h4.56v5.39h-4.56v-5.39Zm6.63,225.1v-7.85h-6.63v7.85h6.63Zm-.83,36.29v-5.89h-4.97v5.89h4.97Zm4.97-701.3v-4.9h-4.15v4.9h4.15Zm1.24,311.91v-4.9h-4.15v4.9h4.15Zm9.95-244.23v-13.73h-12.02v13.73h12.02Zm0,312.4v-13.73h-12.02v13.73h12.02Zm-9.95-273.65h10.36v12.26h-10.36v-12.26Zm0,312.4h10.36v12.26h-10.36v-12.26Zm2.9-273.65h4.56v5.39h-4.56v-5.39Zm0,312.4h4.56v5.39h-4.56v-5.39Zm8.71,190.28v-10.3h-8.71v10.3h8.71Zm-.83,36.29v-8.34h-7.05v8.34h7.05Zm-.83,36.29v-6.38h-5.8v6.38h5.8Zm2.9-704.24v-4.41h-3.73v4.41h3.73Zm1.24,311.91v-4.41h-3.73v4.41h3.73Zm10.78-242.76v-13.73h-11.61v13.73h11.61Zm0,312.4v-13.73h-11.61v13.73h11.61Zm-9.95-273.65h10.78v12.75h-10.78v-12.75Zm0,312.4h10.78v12.75h-10.78v-12.75Zm3.32-273.16h4.15v5.39h-4.15v-5.39Zm0,312.4h4.15v5.4h-4.15v-5.4Zm8.71,190.28v-9.81h-8.29v9.81h8.29Zm-.83,36.29v-7.85h-6.63v7.85h6.63Zm-.83,36.29v-5.88h-4.97v5.88h4.97Zm2.07-738.57v-5.89h-4.97v5.89h4.97Zm-.41,32.86v-4.9h-4.15v4.9h4.15Zm1.66,279.05v-5.88h-4.98v5.88h4.98Zm-.42,32.86v-4.9h-4.15v4.9h4.15Zm11.61-241.78v-13.73h-11.61v13.73h11.61Zm0,312.4v-13.73h-11.61v13.73h11.61Zm-9.95-273.65h10.78v12.75h-10.78v-12.75Zm0,312.4h10.78v12.75h-10.78v-12.75Zm2.9-273.16h4.56v5.39h-4.56v-5.39Zm0,312.4h4.56v5.39h-4.56v-5.39Zm10.78,154.97v-11.77h-9.95v11.77h9.95Zm-.42,36.78v-10.3h-8.71v10.3h8.71Zm-.83,36.29v-8.34h-7.05v8.34h7.05Zm-.83,36.29v-6.38h-5.8v6.38h5.8Zm0-741.51v-5.39h-4.56v5.39h4.56Zm-.41,33.35v-4.41h-3.73v4.41h3.73Zm2.07,278.56v-5.39h-4.97v5.39h4.97Zm-.41,33.35v-4.41h-4.15v4.41h4.15Zm12.02-240.3v-13.73h-11.61v13.73h11.61Zm0,312.4v-13.73h-11.61v13.73h11.61Zm-9.54-273.65h10.36v12.26h-10.36v-12.26Zm0,312.4h10.36v12.26h-10.36v-12.26Zm2.9-273.65h4.56v5.39h-4.56v-5.39Zm0,312.4h4.56v5.39h-4.56v-5.39Zm11.19,156.44v-12.26h-10.36v12.26h10.36Zm-.83,35.8v-9.81h-8.29v9.81h8.29Zm-1.66-702.28v-7.36h-6.22v7.36h6.22Zm-1.24,31.88v-5.88h-4.97v5.88h4.97Zm-.41,33.35v-4.41h-4.15v4.41h4.15Zm2.49,673.34v-7.85h-6.63v7.85h6.63Zm.41-426.66v-7.36h-6.22v7.36h6.22Zm-1.24,31.88v-5.88h-4.56v5.88h4.56Zm-.42,33.35v-4.41h-3.73v4.41h3.73Zm13.68-239.32v-13.73h-11.61v13.73h11.61Zm0,312.4v-13.73h-11.61v13.73h11.61Zm-7.05-234.42h4.56v5.39h-4.56v-5.39Zm0,312.4h4.56v5.39h-4.56v-5.39Zm12.85,120.15v-13.73h-11.61v13.73h11.61Zm-4.56-631.66v-7.36h-6.63v7.36h6.63Zm-1.24,31.88v-5.39h-4.98v5.39h4.98Zm4.97,636.07v-11.77h-9.95v11.77h9.95Zm-5.39-602.23v-4.9h-4.15v4.9h4.15Zm2.9,246.19v-7.36h-6.63v7.36h6.63Zm2.07,392.82v-10.3h-8.71v10.3h8.71Zm-3.32-360.95v-5.39h-4.97v5.39h4.97Zm-.41,33.84v-4.9h-4.15v4.9h4.15Zm2.9,363.4v-8.34h-7.05v8.34h7.05Zm12.02-756.71v-9.32h-7.88v9.32h7.88Zm-.83,32.37v-7.85h-6.22v7.85h6.22Zm-1.24,31.88v-5.39h-4.56v5.39h4.56Zm3.32,247.66v-9.32h-7.88v9.32h7.88Zm-3.73-214.31v-4.41h-3.73v4.41h3.73Zm2.9,246.68v-7.85h-6.22v7.85h6.22Zm5.39,322.2v-13.73h-11.61v13.73h11.61Zm-6.22-290.33v-5.39h-4.97v5.39h4.97Zm5.39,326.13v-11.77h-10.36v11.77h10.36Zm-5.8-292.78v-4.41h-4.15v4.41h4.15Zm4.97,329.07v-9.81h-8.71v9.81h8.71Zm10.37-721.89v-9.32h-8.29v9.32h8.29Zm-1.24,31.88v-7.36h-6.63v7.36h6.63Zm-.83,32.86v-5.88h-4.97v5.88h4.97Zm-.42,33.35v-4.9h-4.15v4.9h4.15Zm3.73,213.82v-9.32h-7.88v9.32h7.88Zm-1.24,31.88v-7.36h-6.22v7.36h6.22Zm-.83,32.86v-5.88h-4.56v5.88h4.56Zm-.41,33.35v-4.9h-3.73v4.9h3.73Zm8.29,220.69v-13.73h-11.61v13.73h11.61Zm0,37.27v-13.73h-11.61v13.73h11.61Zm-.83,36.29v-11.77h-9.95v11.77h9.95Zm-.42,36.78v-10.3h-8.71v10.3h8.71Zm8.29-757.2v-10.3h-9.12v10.3h9.12Zm-.41,32.86v-9.81h-7.88v9.81h7.88Zm2.07,279.05v-10.3h-9.54v10.3h9.54Zm-2.9-246.68v-7.36h-6.22v7.36h6.22Zm-.83,31.88v-5.39h-4.98v5.39h4.98Zm3.32,247.66v-9.81h-8.29v9.81h8.29Zm-.83,32.37v-7.36h-6.63v7.36h6.63Zm-1.24,31.88v-5.39h-4.97v5.39h4.97Zm9.54,256.98v-13.73h-11.61v13.73h11.61Zm0,37.27v-14.22h-11.61v14.22h11.61Zm-.83,35.8v-12.26h-10.36v12.26h10.36Zm6.63-722.38v-10.3h-9.12v10.3h9.12Zm-.83,32.37v-8.83h-7.88v8.83h7.88Zm-.83,32.86v-7.85h-6.22v7.85h6.22Zm2.9,246.68v-10.3h-9.12v10.3h9.12Zm-.83,32.37v-8.83h-7.88v8.83h7.88Zm-2.9-246.68v-5.88h-4.56v5.88h4.56Zm2.07,279.54v-7.85h-6.22v7.85h6.22Zm-.83,32.37v-5.39h-4.56v5.39h4.56Zm11.19,220.69v-13.73h-11.61v13.73h11.61Zm0,37.27v-13.73h-11.61v13.73h11.61Zm0,37.27v-13.73h-11.61v13.73h11.61Zm-.83,36.29v-11.77h-9.95v11.77h9.95Zm5.8-756.71v-12.26h-10.36v12.26h10.36Zm-.83,32.37v-10.79h-9.54v10.79h9.54Zm-.41,32.86v-9.32h-8.29v9.32h8.29Zm2.49,246.68v-12.26h-10.37v12.26h10.37Zm-3.32-214.31v-7.36h-6.63v7.36h6.63Zm2.49,246.68v-10.79h-9.12v10.79h9.12Zm-.42,32.86v-9.32h-7.88v9.32h7.88Zm-.83,32.37v-7.36h-6.22v7.36h6.22Zm11.61,255.51v-13.73h-11.61v13.73h11.61Zm0,37.27v-14.22h-11.61v14.22h11.61Zm0,36.78v-13.73h-11.61v13.73h11.61Zm3.32-722.38v-12.26h-10.36v12.26h10.36Zm-.83,32.37v-10.79h-9.54v10.79h9.54Zm-.83,32.86v-9.32h-7.88v9.32h7.88Zm2.9,246.68v-12.26h-10.37v12.26h10.37Zm-.83,32.37v-10.79h-9.54v10.79h9.54Zm-2.9-246.68v-7.36h-6.22v7.36h6.22Zm2.49,279.54v-9.32h-8.29v9.32h8.29Zm-.83,32.37v-7.36h-6.63v7.36h6.63Zm13.27,256.98v-13.73h-11.61v13.73h11.61Zm0,37.27v-13.73h-11.61v13.73h11.61Zm0,37.27v-13.73h-11.61v13.73h11.61Zm.42-111.82v-13.73h-11.61v13.73h11.61Zm2.07-644.9v-13.24h-12.02v13.24h12.02Zm-.83,32.37v-12.26h-10.36v12.26h10.36Zm-.83,32.37v-10.3h-9.12v10.3h9.12Zm2.9,247.17v-13.24h-12.02v13.24h12.02Zm-3.32-214.31v-8.83h-7.88v8.83h7.88Zm2.49,246.68v-12.26h-10.36v12.26h10.36Zm-.83,32.37v-10.3h-9.12v10.3h9.12Zm-.42,32.86v-8.83h-7.88v8.83h7.88Zm14.1,291.8v-14.22h-11.61v14.22h11.61Zm0,36.78v-13.73h-11.61v13.73h11.61Zm.83-721.4v-14.22h-12.02v14.22h12.02Zm-.41,647.35v-13.73h-11.61v13.73h11.61Zm-.42-614.98v-12.26h-10.36v12.26h10.36Zm-.83,32.86v-11.28h-9.12v11.28h9.12Zm-.41,32.37v-8.83h-8.29v8.83h8.29Zm3.73,214.31v-14.22h-12.02v14.22h12.02Zm-.83,32.37v-12.26h-10.36v12.26h10.36Zm-.83,32.86v-11.28h-9.12v11.28h9.12Zm-.83,32.37v-8.83h-7.88v8.83h7.88Zm15.75-425.19v-14.22h-13.68v14.22h13.68Zm-.83,31.88v-13.73h-12.02v13.73h12.02Zm2.07,280.03v-14.22h-13.68v14.22h13.68Zm-2.9-247.17v-12.26h-10.36v12.26h10.36Zm1.66,653.73v-13.73h-12.02v13.73h12.02Zm0,37.27v-13.73h-12.02v13.73h12.02Zm-2.49-658.63v-10.3h-9.12v10.3h9.12Zm2.9,246.68v-13.73h-12.02v13.73h12.02Zm0,337.41v-13.73h-11.61v13.73h11.61Zm-.83-304.55v-12.26h-10.36v12.26h10.36Zm1.24,267.28v-13.73h-11.61v13.73h11.61Zm-2.07-234.91v-10.3h-9.12v10.3h9.12Zm15.75-392.33v-16.18h-13.68v16.18h13.68Zm-.83,32.37v-14.22h-12.02v14.22h12.02Zm2.07,279.54v-16.18h-13.68v16.18h13.68Zm-2.9-247.17v-12.26h-10.36v12.26h10.36Zm-.83,32.86v-10.79h-9.12v10.79h9.12Zm2.9,246.68v-14.22h-12.02v14.22h12.02Zm-.83,32.37v-12.26h-10.37v12.26h10.37Zm-.83,32.86v-10.79h-9.12v10.79h9.12Zm2.49,310.92v-13.73h-11.61v13.73h11.61Zm.41-36.78v-14.22h-11.61v14.22h11.61Zm.42-37.27v-13.73h-11.61v13.73h11.61Zm11.61-663.04v-14.22h-13.68v14.22h13.68Zm0,32.86v-15.69h-13.68v15.69h13.68Zm-.83,32.86v-14.22h-12.02v14.22h12.02Zm-.83,32.37v-12.26h-10.36v12.26h10.36Zm2.9,213.82v-14.22h-13.27v14.22h13.27Zm0,32.86v-15.69h-13.27v15.69h13.27Zm-.41,32.86v-14.22h-12.02v14.22h12.02Zm-.83,32.37v-12.26h-10.37v12.26h10.37Zm2.9,345.75v-13.73h-11.61v13.73h11.61Zm.83-37.27v-13.73h-12.02v13.73h12.02Zm.42-74.54v-13.73h-11.61v13.73h11.61Zm0,37.27v-13.73h-11.61v13.73h11.61Zm10.36-664.52v-16.18h-13.68v16.18h13.68Zm0,33.35v-16.18h-13.68v16.18h13.68Zm-.83,32.37v-13.73h-12.02v13.73h12.02Zm2.07,246.19v-16.18h-13.68v16.18h13.68Zm0,33.35v-16.18h-13.68v16.18h13.68Zm-2.9-247.17v-11.77h-10.36v11.77h10.36Zm2.07,279.54v-13.73h-12.02v13.73h12.02Zm-.83,32.37v-11.77h-10.37v11.77h10.37Zm101.16-37.27l-109.03-128.98v37.27l109.03,128.98v-37.27Zm-95.77,347.71v-13.73h-11.61v13.73h11.61Zm.41-74.05v-13.73h-11.61v13.73h11.61Zm0,37.27v-14.22h-11.61v14.22h11.61Zm7.88-700.32v-14.22h-13.27v14.22h13.27Zm.42,32.86v-15.69h-13.27v15.69h13.27Zm0,33.84v-16.18h-13.27v16.18h13.27Zm-.42,32.37v-14.22h-12.02v14.22h12.02Zm2.07,245.7v-15.69h-13.68v15.69h13.68Zm0,33.84v-16.18h-13.68v16.18h13.68Zm-.83,32.37v-14.22h-12.02v14.22h12.02Zm5.8,344.76v-13.73h-11.61v13.73h11.61Zm.83-37.27v-13.73h-12.02v13.73h12.02Zm0-37.27v-13.73h-11.61v13.73h11.61Zm.42-37.27v-13.73h-11.61v13.73h11.61Zm6.22-627.24v-16.18h-13.68v16.18h13.68Zm.41,33.35v-16.18h-13.68v16.18h13.68Zm0,33.35v-15.69h-13.68v15.69h13.68Zm-.83,31.39v-12.75h-12.02v12.75h12.02Zm2.07,247.17v-16.18h-13.27v16.18h13.27Zm0,33.35v-15.69h-13.27v15.69h13.27Zm-.83,31.39v-12.75h-11.61v12.75h11.61Zm8.29,273.65v-14.22h-11.61v14.22h11.61Zm0,36.78v-13.73h-11.61v13.73h11.61Zm.42-74.05v-13.73h-11.61v13.73h11.61Zm4.56-630.19v-15.69h-13.68v15.69h13.68Zm.41-32.86v-14.22h-13.68v14.22h13.68Zm0,66.7v-16.18h-13.68v16.18h13.68Zm0,33.35v-16.18h-13.68v16.18h13.68Zm1.24,278.56v-16.18h-13.68v16.18h13.68Zm0,33.35v-16.18h-13.68v16.18h13.68Zm9.12,306.51v-13.73h-12.02v13.73h12.02Zm-.42,37.27v-13.73h-11.61v13.73h11.61Zm.83-111.82v-13.73h-11.61v13.73h11.61Zm0,37.27v-13.73h-11.61v13.73h11.61Zm2.9-631.17v-16.18h-13.27v16.18h13.27Zm.41-33.35v-16.18h-13.27v16.18h13.27Zm0,66.7v-15.69h-13.27v15.69h13.27Zm0,31.39v-13.73h-13.27v13.73h13.27Zm1.66,280.52v-15.69h-13.68v15.69h13.68Zm0,31.39v-13.73h-13.68v13.73h13.68Zm98.25-349.18l-109.03-128.98v37.27l109.03,128.98v-37.27Zm-85.82-44.63v-15.69h-13.68v15.69h13.68Zm0,33.84v-16.18h-13.68v16.18h13.68Zm0,33.35v-16.18h-13.68v16.18h13.68Zm-2.07,637.05v-13.73h-11.61v13.73h11.61Zm.41-74.05v-13.73h-11.61v13.73h11.61Zm0,37.27v-14.22h-11.61v14.22h11.61Zm2.9-288.37v-16.18h-13.27v16.18h13.27Zm97.01,307.98l-109.03-128.98v37.27l109.03,128.98v-37.27Zm-84.16-636.56v-15.69h-13.68v15.69h13.68Zm.41-33.35v-16.18h-13.68v16.18h13.68Zm0,64.74v-13.73h-13.68v13.73h13.68Zm-1.24,640.98v-13.73h-11.61v13.73h11.61Zm2.49-329.07v-13.73h-13.68v13.73h13.68Zm-1.66,291.8v-13.73h-12.02v13.73h12.02Zm0-37.27v-13.73h-11.61v13.73h11.61Zm13.68-581.14v-16.18h-13.27v16.18h13.27Zm.83-33.35v-16.18h-13.27v16.18h13.27Zm1.24,633.62v-14.22h-11.61v14.22h11.61Zm0,36.78v-13.73h-11.61v13.73h11.61Zm12.44-622.34v-13.73h-13.68v13.73h13.68Zm.41-31.39v-15.69h-13.68v15.69h13.68Zm2.9,635.09v-13.73h-12.02v13.73h12.02Zm-.42,37.27v-13.73h-11.61v13.73h11.61Zm11.61-655.69v-16.18h-13.68v16.18h13.68Zm4.56,637.05v-13.73h-11.61v13.73h11.61Zm9.54-622.34v-13.73h-13.68v13.73h13.68Zm5.8,640.98v-13.73h-11.61v13.73h11.61Z"/><path d="M1709.35,1775.49l250.41-691.49h41.04l195.68,231.48,221.39,603.7h-57.21l-155.88-138.79-21.14-54.44h-254.55l-74.62,193.22h-42.7l-102.4-143.69Zm43.53-4.41l74.62-193.22h306.79l74.62,193.22h33.58l-246.26-676.78h-30.68l-245.43,676.78h32.75Zm96.6,138.3l.83-1.96v-11.77h4.56l14.92-39.23h-5.39v-14.22h11.19l3.32-8.83v-8.83h3.32l7.88-20.11h-11.19v-15.2h12.44v11.77l4.97-12.75h-3.73v-17.66h10.36l2.07-4.9v-9.81h-12.44v14.71h-14.92v-17.16h-14.93v-17.66h-14.51v-17.66h12.85v-14.71h-12.85v14.71h-14.92v-17.17h-14.92v-17.65h-14.51v-17.66h12.85v-14.71h-8.71l-4.15,10.3v4.41h-1.66l-7.05,18.64h7.88v15.2h-12.85v-2.94l-2.49,6.38v13.73h-5.39l-14.92,38.74h4.98v13.24h-9.95l-4.15,10.79,7.88,11.28h6.22v9.32l5.39,7.85h9.12v12.75l4.15,5.88v-.98h10.78v12.75h-2.9l7.05,10.3v-5.39h10.78v12.26h-5.8l9.95,14.22v-9.32h10.36v12.75h-7.88l12.02,17.17v-12.26h10.78v12.75h-10.78l13.27,18.64h.83Zm-73.38-171.65h11.61v13.73h-11.61v-13.73Zm0,35.31h11.19v12.75h-11.19v-12.75Zm14.51-53.46h12.02v14.71h-12.02v-14.71Zm0,35.31h11.61v13.73h-11.61v-13.73Zm.42,35.31h11.19v13.24h-11.19v-13.24Zm14.1-88.28h12.44v15.2h-12.44v-15.2Zm0,35.31h12.02v14.22h-12.02v-14.22Zm.41,35.31h11.61v13.73h-11.61v-13.73Zm0,35.31h11.19v13.24h-11.19v-13.24Zm25.7-124.57v-15.2h-12.44v15.2h12.44Zm-11.61,36.29h12.85v14.71h-12.85v-14.71Zm.42,35.31h12.02v14.22h-12.02v-14.22Zm0,35.31h12.02v13.73h-12.02v-13.73Zm.41,34.82h11.19v13.24h-11.19v-13.24Zm9.12-179v-10.3h-8.71v10.3h8.71Zm0-37.27v-7.85h-2.49l-2.9,7.85h5.39Zm16.58,91.71v-14.71h-12.44v14.71h12.44Zm-11.61,36.29h12.44v15.2h-12.44v-15.2Zm.42,35.31h12.02v14.71h-12.02v-14.71Zm0,35.31h11.61v13.73h-11.61v-13.73Zm9.12-144.18v-10.3h-8.71v10.3h8.71Zm-8.71,179.49h11.19v13.24h-11.19v-13.24Zm8.71-216.76v-7.85h-6.63v7.85h6.63Zm136.81-492.87l140.54,410.48h-281.09l140.54-410.48Zm-128.52,462.95v-5.88h-4.56v5.88h4.56Zm-3.32,158.41h12.85v15.2h-12.85v-15.2Zm.41,35.31h12.02v14.22h-12.02v-14.22Zm.42,35.31h11.61v13.73h-11.61v-13.73Zm0,35.31h11.19v13.24h-11.19v-13.24Zm9.12-179.49v-10.3h-8.71v10.3h8.71Zm0-37.27v-7.85h-6.63v7.85h6.63Zm8.71-109.85v-10.3h14.1v10.3h15.34v-10.3h14.1v10.3h15.34v-10.3h14.51v10.3h14.92v-10.3h14.51v10.3h9.12l3.32-10.3h-12.02v-17.17h14.51v10.3l3.73-10.3h-3.73v-17.16h-14.51v-17.66h14.1v-16.67h-14.1v16.67h-14.92v-17.66h14.1v-16.67h-14.1v16.67h-14.92v-17.17h-14.51v-17.65h14.1v-16.67h-14.1v16.67h-14.92v-17.66h-13.68l-1.24,3.92v13.24h-4.56l-6.22,18.15h10.78v17.17h-14.1v-7.36l-2.49,7.85h2.07v16.67h-7.88l-6.22,18.15h14.1v17.16h-14.51v-16.18l-5.39,16.18h4.97v17.17h-10.78l-3.73,10.3h14.92Zm-1.24,78.96v-5.89h-4.97v5.89h4.97Zm9.12,123.09v-15.2h-12.44v15.2h12.44Zm-11.61,36.29h12.85v14.71h-12.85v-14.71Zm.42,35.31h12.02v14.22h-12.02v-14.22Zm9.12-108.87v-10.3h-8.29v10.3h8.29Zm0-37.27v-8.34h-6.63v8.34h6.63Zm7.46-31.88v-5.39h-4.98v5.39h4.98Zm2.07-32.37v-7.36h-6.63v7.36h6.63Zm7.46,155.95v-14.71h-12.85v14.71h12.85Zm-2.07-37.27v-10.3h-8.71v10.3h8.71Zm0-37.27v-7.85h-6.63v7.85h6.63Zm-5.8-206.96h14.1v17.16h-14.1v-17.16Zm0,34.82h14.1v17.17h-14.1v-17.17Zm14.51,107.89v-7.85h-6.63v7.85h6.63Zm-2.07,31.88v-5.4h-4.56v5.4h4.56Zm8.29,87.29v-10.3h-8.71v10.3h8.71Zm0-37.27v-7.85h-6.63v7.85h6.63Zm-6.22-277.09h14.51v17.16h-14.51v-17.16Zm0,35.31h14.51v16.67h-14.51v-16.67Zm0,34.82h14.51v17.16h-14.51v-17.16Zm14.1-105.44v-16.67h-1.24l-5.8,16.67h7.05Zm1.66,213.33v-9.32h-8.29v9.32h8.29Zm-1.66,33.84v-7.85h-6.63v7.85h6.63Zm-1.66,32.37v-5.39h-4.97v5.39h4.97Zm1.24,87.29l3.73-9.81h-4.98v9.81h1.24Zm7.05-37.27v-7.85h-6.63v7.85h6.63Zm7.88-311.91v-16.67h-13.68v16.67h13.68Zm-13.68,35.31h14.1v17.17h-14.1v-17.17Zm0,34.82h14.1v17.16h-14.1v-17.16Zm0,34.82h14.1v17.17h-14.1v-17.17Zm13.27-140.75v-15.2h-9.95l-2.9,8.83v6.38h12.85Zm1.24,248.64v-9.81h-7.88v9.81h7.88Zm-3.32,66.21v-5.89h-4.56v5.89h4.56Zm2.07-32.86v-7.36h-6.22v7.36h6.22Zm-.42-317.3v-7.36l-2.49,7.36h2.49Zm1.66,124.08h14.51v16.67h-14.51v-16.67Zm0,34.82h14.51v17.16h-14.51v-17.16Zm13.68-105.93v-15.2h-12.85v15.2h12.85Zm-.83-35.8v-13.73h-11.61v13.73h11.61Zm-.42-35.31v-12.75h-5.8l-4.56,12.75h10.36Zm2.07,318.77v-9.32h-8.29v9.32h8.29Zm1.24-33.35v-10.3h-9.12v10.3h9.12Zm-2.49,66.7v-7.36h-6.63v7.36h6.63Zm-1.66,33.35v-5.88h-4.97v5.88h4.97Zm17.41-261.39v-16.67h-14.1v16.67h14.1Zm-14.1,35.31h14.51v17.16h-14.51v-17.16Zm0,34.82h14.51v17.17h-14.51v-17.17Zm13.27-105.44v-15.69h-12.85v15.69h12.85Zm-.41-35.8v-14.22h-11.61v14.22h11.61Zm-.42-35.8v-12.75h-10.78v12.75h10.78Zm-.83-35.31v-11.28h-9.54v11.28h9.54Zm-.41-35.8v-9.81h-2.07l-3.32,9.81h5.39Zm3.73,356.53v-10.79h-9.12v10.79h9.12Zm-1.24,32.86v-9.32h-7.88v9.32h7.88Zm-1.24,34.33v-7.85h-6.22v7.85h6.22Zm-.83,32.37v-5.89h-4.97v5.89h4.97Zm3.32-225.1h14.1v17.16h-14.1v-17.16Zm13.27-71.11v-15.2h-12.85v15.2h12.85Zm-.41-35.31v-14.22h-12.02v14.22h12.02Zm-.83-35.8v-12.75h-10.36v12.75h10.36Zm-.42-35.31v-11.77h-9.54v11.77h9.54Zm-.41-35.8v-10.3h-8.71v10.3h8.71Zm-.83-35.8v-8.83h-7.46v8.83h7.46Zm4.56,391.84v-10.79h-9.54v10.79h9.54Zm-1.66,32.37v-8.83h-7.88v8.83h7.88Zm1.66-66.7v-10.3h-9.12v10.3h9.12Zm-2.07,100.54v-7.36h-6.22v7.36h6.22Zm15.34-262.37v-15.2h-13.27v15.2h13.27Zm-.83-35.8v-13.73h-11.61v13.73h11.61Zm-.42-35.31v-12.75h-10.78v12.75h10.78Zm-.42-35.8v-11.28h-9.95v11.28h9.95Zm-.83-35.31v-10.3h-8.29v10.3h8.29Zm-.41-35.8v-8.83h-7.46v8.83h7.46Zm-.42-35.8v-7.36h-6.63v7.36h6.63Zm-.83-35.31v-6.38h-4.97v6.38h4.97Zm4.15,461.97v-10.79h-9.12v10.79h9.12Zm-.83,33.35v-9.32h-8.29v9.32h8.29Zm1.24-67.19v-10.79h-9.12v10.79h9.12Zm-1.66,100.54v-7.85h-6.63v7.85h6.63Zm11.61-226.57l4.97-14.22v-2.45h-14.1v16.67h9.12Zm4.15-35.31v-15.69h-12.85v15.69h12.85Zm-.41-35.8v-14.22h-12.02v14.22h12.02Zm-.42-35.8v-12.75h-10.78v12.75h10.78Zm-.83-35.31v-11.77h-9.54v11.77h9.54Zm-.41-35.8v-9.81h-8.71v9.81h8.71Zm111.94,223.14l-60.11-175.57-60.11,175.57h120.23Zm-112.35-258.45v-8.83h-7.46v8.83h7.46Zm-.83-35.8v-7.36h-6.22v7.36h6.22Zm-.42-35.8v-1.96l-1.24-3.92h-4.15v5.88h5.39Zm4.56,428.13v-10.79h-9.54v10.79h9.54Zm-.41,33.35v-10.79h-9.12v10.79h9.12Zm.41-67.68v-10.3h-9.12v10.3h9.12Zm-1.24,100.54v-8.83h-7.88v8.83h7.88Zm7.88-242.76h-5.39v15.2l5.39-15.2Zm6.63-20.11l.42-.98v-13.24h-12.02v14.22h11.61Zm-.41-35.8v-12.75h-10.78v12.75h10.78Zm-.42-35.8v-11.28h-9.54v11.28h9.54Zm-.41-35.31v-10.3h-8.71v10.3h8.71Zm-.83-35.8v-8.83h-7.46v8.83h7.46Zm-.42-35.31v-7.85h-6.22v7.85h6.22Zm3.32,357.51v-10.79h-9.54v10.79h9.54Zm-.41,33.84v-10.79h-9.12v10.79h9.12Zm0,33.84v-10.79h-9.12v10.79h9.12Zm-.42,32.86v-8.83h-8.71v8.83h8.71Zm176.61-393.81l-178.27-210.88,243.36,670.4,150.08,128-215.17-587.52Zm-170.39,95.63l4.56-12.75h-7.05v12.75h2.49Zm7.88-35.8v-11.28h-9.95v11.28h9.95Zm-.83-35.8v-9.81h-8.29v9.81h8.29Zm-.41-35.31v-8.83h-7.46v8.83h7.46Zm2.49,321.71v-10.79h-9.54v10.79h9.54Zm-.42,33.35v-10.79h-9.12v10.79h9.12Zm.42-67.68v-10.3h-9.12v10.3h9.12Zm0,101.03v-10.3h-9.12v10.3h9.12Zm9.54-335.45l3.32-10.3h-8.71v10.3h5.39Zm4.56,285.42v-10.79h-9.54v10.79h9.54Zm0,33.84v-10.79h-9.54v10.79h9.54Zm-4.15-355.06l-2.9-8.34h-2.07v8.34h4.98Zm4.56,287.38v-10.79h-9.54v10.79h9.54Zm0,101.52v-10.79h-9.12v10.79h9.12Zm14.1-84.35v-10.79h-9.54v10.79h9.54Zm-.42,33.35v-10.79h-9.12v10.79h9.12Zm.42-67.68v-10.3h-9.12v10.3h9.12Zm0,101.03v-10.3h-9.12v10.3h9.12Zm14.1-50.02v-10.79h-9.12v10.79h9.12Zm0,33.84v-10.79h-9.12v10.79h9.12Zm.41-67.68v-10.79h-9.12v10.79h9.12Zm.42,101.52v-10.79h-9.12v10.79h9.12Zm14.1-84.35v-10.79h-9.54v10.79h9.54Zm-.42,33.35v-10.79h-9.12v10.79h9.12Zm.42-67.68v-10.3h-9.12v10.3h9.12Zm0,101.03v-10.3h-9.12v10.3h9.12Zm13.68-50.02v-10.79h-9.12v10.79h9.12Zm0,33.84v-10.79h-9.12v10.79h9.12Zm.42-67.68v-10.79h-9.12v10.79h9.12Zm.41,101.52v-10.79h-9.12v10.79h9.12Zm14.1-84.35v-10.79h-9.54v10.79h9.54Zm-.41,33.35v-10.79h-9.12v10.79h9.12Zm.41-67.68v-10.3h-9.12v10.3h9.12Zm0,101.03v-10.3h-9.12v10.3h9.12Zm14.1-50.02v-10.79h-9.54v10.79h9.54Zm0,33.84v-10.79h-9.54v10.79h9.54Zm0-67.68v-10.79h-9.12v10.79h9.12Zm.42,101.52v-10.79h-9.12v10.79h9.12Zm14.1-84.35v-7.85l-1.24-2.94h-8.29v10.79h9.54Zm-.41,33.35v-10.79h-9.12v10.79h9.12Zm.41,33.35v-10.3h-9.12v10.3h9.12Zm9.54-50.02l-4.15-10.79h-.42v10.79h4.56Zm4.56,33.84v-10.79h-9.12v10.79h9.12Zm.83,33.84v-10.79h-9.12v10.79h9.12Zm14.1-17.65l-4.15-10.3h-5.39v10.3h9.54Zm50.16-12.75h3.32v3.92h-3.32v-3.92Zm20.73,59.34v-9.81h-8.29v9.81h8.29Zm-6.22-42.67h4.15v4.9h-4.15v-4.9Zm.42-33.84h2.9v2.94h-2.9v-2.94Zm11.61,83.86h9.95v10.79h-9.95v-10.79Zm2.07-33.35h5.39v6.38h-5.39v-6.38Zm1.24-33.35h2.9v3.43h-2.9v-3.43Zm11.19,83.86h9.95v10.79h-9.95v-10.79Zm1.66-33.35h6.63v7.85h-6.63v-7.85Zm1.66-33.35h3.32v3.92h-3.32v-3.92Zm11.61,83.37h10.37v12.26h-10.37v-12.26Zm1.24-33.35h7.88v9.32h-7.88v-9.32Zm1.66-32.86h4.15v4.9h-4.15v-4.9Zm.41-34.33h2.9v3.43h-2.9v-3.43Zm21.97,129.96v-12.75h-11.19v12.75h11.19Zm-9.95-46.1h8.29v9.81h-8.29v-9.81Zm2.07-32.37h4.97v5.89h-4.97v-5.89Zm.83-33.84h2.9v3.43h-2.9v-3.43Zm21.97,130.45v-12.75h-10.78v12.75h10.78Zm-10.37-46.59h9.54v11.28h-9.54v-11.28Zm2.07-32.86h5.8v6.87h-5.8v-6.87Zm.83-33.84h3.32v3.92h-3.32v-3.92Zm21.97,129.47v-12.75h-10.78v12.75h10.78Zm-10.36-46.59h10.78v12.75h-10.78v-12.75Zm1.24-32.86h6.63v7.85h-6.63v-7.85Zm1.66-32.86h3.73v4.41h-3.73v-4.41Zm23.22,131.43v-14.71h-12.44v14.71h12.44Zm-11.61-48.55h11.19v13.24h-11.19v-13.24Zm1.24-32.86h7.88v9.32h-7.88v-9.32Zm1.24-33.35h4.97v5.88h-4.97v-5.88Zm12.02,83.37h12.02v14.22h-12.02v-14.22Zm.83-33.35h9.54v11.28h-9.54v-11.28Zm6.63-26.97v-5.88h-4.97v5.88h4.97Zm6.63,77.98h12.44v14.71h-12.44v-14.71Zm11.61-22.07v-12.75h-10.78v12.75h10.78Zm14.92,18.64l-11.19-14.22v14.22h11.19Zm.42,36.29v-14.22h-11.61v14.22h11.61Zm17,21.09l-4.15-16.67h-9.12v16.67h13.27Z"/><path d="M2461.82,1777.45v-500.72h-82.5l-119.81-141.73v-51h448.58l119.81,141.73v51h-197.34v642.45h-44.78l-123.96-141.73Zm38.97-6.87v-642.45h201.49v-34.33h-434.48v34.33h202.32v642.45h30.68Zm-194.85-614v-17.65h-14.92v17.65h14.92Zm15.75,18.15v-17.16h-14.92v17.16h14.92Zm14.92,18.15v-17.65h-14.51v17.65h14.51Zm-.83-37.76v-15.2h-12.85v15.2h12.85Zm16.58,56.4v-17.65h-14.51v17.65h14.51Zm-.83-37.76v-15.2h-12.85v15.2h12.85Zm16.17,55.91v-17.65h-14.92v17.65h14.92Zm-.83-37.76v-15.69h-13.27v15.69h13.27Zm-.83-37.76v-13.24h-11.19v13.24h11.19Zm17.41,93.67v-17.16h-14.92v17.16h14.92Zm-.83-37.27v-15.69h-13.27v15.69h13.27Zm-.83-37.76v-13.24h-11.61v13.24h11.61Zm17,93.18v-17.66h-14.92v17.66h14.92Zm-1.24-37.27v-15.69h-12.85v15.69h12.85Zm-.83-37.76v-13.24h-11.19v13.24h11.19Zm-.41-37.27v-11.77h-9.95v11.77h9.95Zm17,93.18v-15.2h-12.85v15.2h12.85Zm-.83-37.27v-13.73h-11.19v13.73h11.19Zm-.41-37.76v-11.28h-9.95v11.28h9.95Zm16.58,93.18v-15.2h-12.85v15.2h12.85Zm-.83-37.76v-13.24h-11.19v13.24h11.19Zm-.42-36.78v-11.77h-9.95v11.77h9.95Zm-1.66-38.25v-8.34h-7.05v8.34h7.05Zm17.83,93.67v-13.24h-11.61v13.24h11.61Zm-.41-37.27v-11.77h-9.95v11.77h9.95Zm-2.07-38.25v-8.34h-7.05v8.34h7.05Zm17.41,93.67v-13.24h-11.19v13.24h11.19Zm0-37.27v-11.77h-10.36v11.77h10.36Zm-1.66-37.76v-8.34h-7.05v8.34h7.05Zm-1.66-38.25v-4.9h-4.15v4.9h4.15Zm63.43,8.83v-14.71h-9.54v14.71h9.54Zm103.65,284.93h-3.32v-4.9h3.32v-29.43h-4.97v-8.83h4.97v-25.99h-6.63v-12.26h6.63v-22.07h-8.29v-16.18h8.29v-18.15h-9.95v-18.15h-15.34v-18.15h-15.34v-18.64h-15.34v-18.15h-15.34v-18.15h-15.34v-18.15h-15.34v-18.15h-11.19v18.15h11.19v16.67h-11.19v21.58h9.54v12.75h-9.54v532.1l113.18,128.98v-464.92Zm-112.77-170.67h7.46v8.83h-7.46v-8.83Zm1.66,38.25h4.15v4.9h-4.15v-4.9Zm23.22-134.38v-14.71h-12.44v14.71h12.44Zm-12.44,38.25h13.68v16.18h-13.68v-16.18Zm1.24,37.76h10.78v12.75h-10.78v-12.75Zm1.66,38.25h7.46v8.83h-7.46v-8.83Zm1.66,38.25h4.15v4.9h-4.15v-4.9Zm23.22-134.38v-14.71h-12.44v14.71h12.44Zm-12.44,38.25h13.68v16.18h-13.68v-16.18Zm1.66,38.25h10.37v12.26h-10.37v-12.26Zm4.98-123.09v-4.9h-4.15v4.9h4.15Zm-3.73,160.86h7.46v8.83h-7.46v-8.83Zm1.66,38.74h4.15v4.9h-4.15v-4.9Zm23.22-134.87v-14.71h-12.44v14.71h12.44Zm-12.44,38.25h13.68v16.18h-13.68v-16.18Zm1.66,38.25h10.36v12.26h-10.36v-12.26Zm4.97-123.1v-4.9h-4.15v4.9h4.15Zm-3.73,161.35h7.46v8.83h-7.46v-8.83Zm1.66,38.25h4.15v4.9h-4.15v-4.9Zm23.22-134.87v-14.71h-12.44v14.71h12.44Zm-12.44,38.25h13.68v16.18h-13.68v-16.18Zm8.71-118.68v-8.34h-7.05v8.34h7.05Zm-7.05,156.93h10.36v12.26h-10.36v-12.26Zm5.39-122.6v-4.9h-4.15v4.9h4.15Zm-4.15,160.86h7.46v8.83h-7.46v-8.83Zm1.66,38.25h4.56v4.9h-4.56v-4.9Zm23.22-134.87v-14.71h-12.44v14.71h12.44Zm-12.44,38.25h13.68v16.18h-13.68v-16.18Zm8.71-118.68v-8.34h-7.05v8.34h7.05Zm-7.05,156.93h10.37v12.26h-10.37v-12.26Zm5.39-122.6v-4.9h-4.15v4.9h4.15Zm-3.73,160.86h7.46v8.83h-7.46v-8.83Zm1.24,38.25h4.56v4.9h-4.56v-4.9Zm20.73-250.11v-11.28h-9.95v11.28h9.95Zm2.49,115.25v-14.71h-12.44v14.71h12.44Zm-12.44,38.25h13.68v16.18h-13.68v-16.18Zm8.29-118.68v-8.34h-6.63v8.34h6.63Zm-6.63,156.93h10.36v12.26h-10.36v-12.26Zm5.8-122.11v-4.9h-4.15v4.9h4.15Zm-4.15,160.37h7.46v8.83h-7.46v-8.83Zm1.66,38.25h4.15v4.9h-4.15v-4.9Zm20.31-250.11v-11.28h-9.95v11.28h9.95Zm-1.66,115.25v-14.71h-8.29v14.71h8.29Zm.42-80.43v-7.85h-7.05v7.85h7.05Zm-1.66,34.33v-4.9h-4.15v4.9h4.15Zm19.48-86.31v-13.24h-11.19v13.24h11.19Zm-.83,35.8v-11.77h-10.36v11.77h10.36Zm-1.66,34.33v-8.34h-7.05v8.34h7.05Zm-1.24,34.82v-4.9h-4.15v4.9h4.15Zm19.07-86.8v-13.24h-11.61v13.24h11.61Zm-1.24,35.8v-11.77h-9.95v11.77h9.95Zm-.83,34.82v-8.34h-7.05v8.34h7.05Zm18.24-87.78v-15.2h-12.85v15.2h12.85Zm-.83,35.8v-13.24h-11.19v13.24h11.19Zm-.83,35.31v-11.77h-9.95v11.77h9.95Zm-1.24,34.82v-8.34h-7.05v8.34h7.05Zm18.24-87.78v-15.2h-12.85v15.2h12.85Zm-.83,35.8v-13.73h-11.19v13.73h11.19Zm-.83,35.31v-11.28h-9.95v11.28h9.95Zm18.24-87.79v-17.65h-14.92v17.65h14.92Zm-.83,35.31v-15.69h-12.85v15.69h12.85Zm-.83,35.31v-13.24h-11.19v13.24h11.19Zm-.83,35.8v-11.77h-9.95v11.77h9.95Zm17.83-88.77v-17.16h-14.92v17.16h14.92Zm-.83,35.8v-15.69h-13.27v15.69h13.27Zm-.83,35.31v-13.24h-11.61v13.24h11.61Zm101.99-15.69l-109.04-128.98v37.27l109.04,128.98v-37.27Zm-84.57-36.78v-17.65h-14.93v17.65h14.93Zm-.83,35.8v-15.69h-13.27v15.69h13.27Zm-1.24,35.31v-13.24h-11.19v13.24h11.19Zm17-52.96v-17.66h-14.51v17.66h14.51Zm-.83,35.31v-15.2h-12.85v15.2h12.85Zm16.58-16.67v-17.65h-14.51v17.65h14.51Zm-.83,35.31v-15.2h-12.85v15.2h12.85Zm16.17-17.66v-17.17h-14.93v17.17h14.93Zm15.75,18.64v-17.66h-14.92v17.66h14.92Z"/><path d="M2863.14,1777.45v-693.45h379.76l119.81,141.73v51h-330.84v119.17h155.47l119.81,141.73v51h-275.28v137.81h223.46l119.81,141.73v51h-388.05l-123.96-141.73Zm386.39-6.87v-34.33h-347.42v-296.21h279.43v-34.33h-279.43v-277.58h334.98v-34.33h-365.66v676.78h378.1Zm-349.08,22.07v-6.38h-5.8v6.38h5.8Zm17.41-631.66v-13.73h-7.46v13.73h7.46Zm105.72,234.91v-58.85h-9.95v-12.75h9.95v-20.11h-12.85v-17.66h-14.92v-17.66h-14.92v-17.65h-14.92v-18.15h-15.34v-17.66h-14.92v-17.66h-14.92v-18.15h-10.37v20.11h8.71v12.75h-8.71v183.42h113.18Zm-105.72,77.49v-13.73h-7.46v13.73h7.46Zm105.72,253.05v-77h-9.95v-12.75h9.95v-20.11h-12.85v-17.65h-14.92v-17.66h-14.92v-17.66h-14.92v-18.15h-15.34v-17.66h-14.92v-17.65h-14.92v-18.15h-10.37v20.11h8.71v12.75h-8.71v201.56h113.18Zm-107.79,84.35v-5.88h-4.97v5.88h4.97Zm-4.56-571.83h4.56v5.39h-4.56v-5.39Zm0,312.4h4.56v5.39h-4.56v-5.39Zm21.97-372.72v-13.73h-11.61v13.73h11.61Zm0,312.4v-13.73h-11.61v13.73h11.61Zm-9.95-273.65h10.78v12.75h-10.78v-12.75Zm0,312.4h10.78v12.75h-10.78v-12.75Zm9.54,263.84v-8.34h-7.05v8.34h7.05Zm-.83,36.29v-6.38h-5.8v6.38h5.8Zm-5.39-573.3h4.56v5.39h-4.56v-5.39Zm0,312.4h4.56v5.39h-4.56v-5.39Zm21.56-372.23v-14.22h-11.61v14.22h11.61Zm0,312.4v-14.22h-11.61v14.22h11.61Zm-9.95-273.65h10.78v12.26h-10.78v-12.26Zm0,312.4h10.78v12.26h-10.78v-12.26Zm3.32-273.65h4.56v5.39h-4.56v-5.39Zm0,312.4h4.56v5.39h-4.56v-5.39Zm6.63,225.1v-7.85h-6.63v7.85h6.63Zm-.83,36.29v-5.89h-4.98v5.89h4.98Zm4.97-701.3v-4.9h-4.15v4.9h4.15Zm1.24,311.91v-4.9h-4.15v4.9h4.15Zm9.95-244.23v-13.73h-12.02v13.73h12.02Zm0,312.4v-13.73h-12.02v13.73h12.02Zm-9.95-273.65h10.36v12.26h-10.36v-12.26Zm0,312.4h10.36v12.26h-10.36v-12.26Zm2.9-273.65h4.56v5.39h-4.56v-5.39Zm0,312.4h4.56v5.39h-4.56v-5.39Zm8.71,190.28v-10.3h-8.71v10.3h8.71Zm-.83,36.29v-8.34h-7.05v8.34h7.05Zm-.83,36.29v-6.38h-5.8v6.38h5.8Zm2.9-704.24v-4.41h-3.73v4.41h3.73Zm1.24,311.91v-4.41h-3.73v4.41h3.73Zm10.78-242.76v-13.73h-11.61v13.73h11.61Zm0,312.4v-13.73h-11.61v13.73h11.61Zm-9.95-273.65h10.78v12.75h-10.78v-12.75Zm0,312.4h10.78v12.75h-10.78v-12.75Zm3.32-273.16h4.15v5.39h-4.15v-5.39Zm0,312.4h4.15v5.4h-4.15v-5.4Zm8.71,190.28v-9.81h-8.29v9.81h8.29Zm-.83,36.29v-7.85h-6.63v7.85h6.63Zm-.83,36.29v-5.88h-4.97v5.88h4.97Zm2.07-738.57v-5.89h-4.98v5.89h4.98Zm-.42,32.86v-4.9h-4.15v4.9h4.15Zm1.66,279.05v-5.88h-4.97v5.88h4.97Zm-.41,32.86v-4.9h-4.15v4.9h4.15Zm11.61-241.78v-13.73h-11.61v13.73h11.61Zm0,312.4v-13.73h-11.61v13.73h11.61Zm-9.95-273.65h10.78v12.75h-10.78v-12.75Zm0,312.4h10.78v12.75h-10.78v-12.75Zm2.9-273.16h4.56v5.39h-4.56v-5.39Zm0,312.4h4.56v5.39h-4.56v-5.39Zm10.78,154.97v-11.77h-9.95v11.77h9.95Zm-.42,36.78v-10.3h-8.71v10.3h8.71Zm-.83,36.29v-8.34h-7.05v8.34h7.05Zm-.83,36.29v-6.38h-5.8v6.38h5.8Zm0-741.51v-5.39h-4.56v5.39h4.56Zm-.42,33.35v-4.41h-3.73v4.41h3.73Zm2.07,278.56v-5.39h-4.97v5.39h4.97Zm-.42,33.35v-4.41h-4.15v4.41h4.15Zm12.02-240.3v-13.73h-11.61v13.73h11.61Zm0,312.4v-13.73h-11.61v13.73h11.61Zm-9.54-273.65h10.36v12.26h-10.36v-12.26Zm0,312.4h10.36v12.26h-10.36v-12.26Zm2.9-273.65h4.56v5.39h-4.56v-5.39Zm0,312.4h4.56v5.39h-4.56v-5.39Zm11.19,156.44v-12.26h-10.37v12.26h10.37Zm-.83,35.8v-9.81h-8.29v9.81h8.29Zm-1.66-702.28v-7.36h-6.22v7.36h6.22Zm-1.24,31.88v-5.88h-4.97v5.88h4.97Zm-.42,33.35v-4.41h-4.15v4.41h4.15Zm2.49,673.34v-7.85h-6.63v7.85h6.63Zm.41-426.66v-7.36h-6.22v7.36h6.22Zm-1.24,31.88v-5.88h-4.56v5.88h4.56Zm-.42,33.35v-4.41h-3.73v4.41h3.73Zm13.68-239.32v-13.73h-11.61v13.73h11.61Zm0,312.4v-13.73h-11.61v13.73h11.61Zm-7.05-234.42h4.56v5.39h-4.56v-5.39Zm0,312.4h4.56v5.39h-4.56v-5.39Zm12.85,120.15v-13.73h-11.61v13.73h11.61Zm-4.56-631.66v-7.36h-6.63v7.36h6.63Zm-1.24,31.88v-5.39h-4.98v5.39h4.98Zm4.97,636.07v-11.77h-9.95v11.77h9.95Zm-5.39-602.23v-4.9h-4.15v4.9h4.15Zm2.9,246.19v-7.36h-6.63v7.36h6.63Zm2.07,392.82v-10.3h-8.71v10.3h8.71Zm-3.32-360.95v-5.39h-4.97v5.39h4.97Zm-.41,33.84v-4.9h-4.15v4.9h4.15Zm2.9,363.4v-8.34h-7.05v8.34h7.05Zm12.02-756.71v-9.32h-7.88v9.32h7.88Zm-.83,32.37v-7.85h-6.22v7.85h6.22Zm-1.24,31.88v-5.39h-4.56v5.39h4.56Zm3.32,247.66v-9.32h-7.88v9.32h7.88Zm-3.73-214.31v-4.41h-3.73v4.41h3.73Zm2.9,246.68v-7.85h-6.22v7.85h6.22Zm5.39,322.2v-13.73h-11.61v13.73h11.61Zm-6.22-290.33v-5.39h-4.97v5.39h4.97Zm5.39,326.13v-11.77h-10.36v11.77h10.36Zm-5.8-292.78v-4.41h-4.15v4.41h4.15Zm4.97,329.07v-9.81h-8.71v9.81h8.71Zm10.36-721.89v-9.32h-8.29v9.32h8.29Zm-1.24,31.88v-7.36h-6.63v7.36h6.63Zm-.83,32.86v-5.88h-4.98v5.88h4.98Zm-.42,33.35v-4.9h-4.15v4.9h4.15Zm3.73,213.82v-9.32h-7.88v9.32h7.88Zm-1.24,31.88v-7.36h-6.22v7.36h6.22Zm-.83,32.86v-5.88h-4.56v5.88h4.56Zm-.41,33.35v-4.9h-3.73v4.9h3.73Zm8.29,220.69v-13.73h-11.61v13.73h11.61Zm0,37.27v-13.73h-11.61v13.73h11.61Zm-.83,36.29v-11.77h-9.95v11.77h9.95Zm-.41,36.78v-10.3h-8.71v10.3h8.71Zm8.29-757.2v-10.3h-9.12v10.3h9.12Zm-.41,32.86v-9.81h-7.88v9.81h7.88Zm2.07,279.05v-10.3h-9.54v10.3h9.54Zm-2.9-246.68v-7.36h-6.22v7.36h6.22Zm-.83,31.88v-5.39h-4.98v5.39h4.98Zm3.32,247.66v-9.81h-8.29v9.81h8.29Zm-.83,32.37v-7.36h-6.63v7.36h6.63Zm-1.24,31.88v-5.39h-4.97v5.39h4.97Zm9.54,256.98v-13.73h-11.61v13.73h11.61Zm0,37.27v-14.22h-11.61v14.22h11.61Zm-.83,35.8v-12.26h-10.36v12.26h10.36Zm6.63-722.38v-10.3h-9.12v10.3h9.12Zm-.83,32.37v-8.83h-7.88v8.83h7.88Zm-.83,32.86v-7.85h-6.22v7.85h6.22Zm2.9,246.68v-10.3h-9.12v10.3h9.12Zm-.83,32.37v-8.83h-7.88v8.83h7.88Zm-2.9-246.68v-5.88h-4.56v5.88h4.56Zm2.07,279.54v-7.85h-6.22v7.85h6.22Zm-.83,32.37v-5.39h-4.56v5.39h4.56Zm11.19,220.69v-13.73h-11.61v13.73h11.61Zm0,37.27v-13.73h-11.61v13.73h11.61Zm0,37.27v-13.73h-11.61v13.73h11.61Zm-.83,36.29v-11.77h-9.95v11.77h9.95Zm5.8-756.71v-12.26h-10.36v12.26h10.36Zm-.83,32.37v-10.79h-9.54v10.79h9.54Zm-.42,32.86v-9.32h-8.29v9.32h8.29Zm2.49,246.68v-12.26h-10.37v12.26h10.37Zm-3.32-214.31v-7.36h-6.63v7.36h6.63Zm2.49,246.68v-10.79h-9.12v10.79h9.12Zm-.42,32.86v-9.32h-7.88v9.32h7.88Zm-.83,32.37v-7.36h-6.22v7.36h6.22Zm11.61,255.51v-13.73h-11.61v13.73h11.61Zm0,37.27v-14.22h-11.61v14.22h11.61Zm0,36.78v-13.73h-11.61v13.73h11.61Zm3.32-722.38v-12.26h-10.36v12.26h10.36Zm-.83,32.37v-10.79h-9.54v10.79h9.54Zm-.83,32.86v-9.32h-7.88v9.32h7.88Zm2.9,246.68v-12.26h-10.37v12.26h10.37Zm-.83,32.37v-10.79h-9.54v10.79h9.54Zm-2.9-246.68v-7.36h-6.22v7.36h6.22Zm2.49,279.54v-9.32h-8.29v9.32h8.29Zm-.83,32.37v-7.36h-6.63v7.36h6.63Zm13.27,256.98v-13.73h-11.61v13.73h11.61Zm0,37.27v-13.73h-11.61v13.73h11.61Zm0,37.27v-13.73h-11.61v13.73h11.61Zm.42-111.82v-13.73h-11.61v13.73h11.61Zm2.07-644.9v-13.24h-12.02v13.24h12.02Zm-.83,32.37v-12.26h-10.36v12.26h10.36Zm-.83,32.37v-10.3h-9.12v10.3h9.12Zm2.9,247.17v-13.24h-12.02v13.24h12.02Zm-3.32-214.31v-8.83h-7.88v8.83h7.88Zm2.49,246.68v-12.26h-10.36v12.26h10.36Zm-.83,32.37v-10.3h-9.12v10.3h9.12Zm-.42,32.86v-8.83h-7.88v8.83h7.88Zm14.1,291.8v-14.22h-11.61v14.22h11.61Zm0,36.78v-13.73h-11.61v13.73h11.61Zm.83-721.4v-14.22h-12.02v14.22h12.02Zm-.41,647.35v-13.73h-11.61v13.73h11.61Zm-.42-614.98v-12.26h-10.36v12.26h10.36Zm-.83,32.86v-11.28h-9.12v11.28h9.12Zm-.41,32.37v-8.83h-8.29v8.83h8.29Zm3.73,214.31v-14.22h-12.02v14.22h12.02Zm-.83,32.37v-12.26h-10.36v12.26h10.36Zm-.83,32.86v-11.28h-9.12v11.28h9.12Zm-.83,32.37v-8.83h-7.88v8.83h7.88Zm15.75-425.19v-14.22h-13.68v14.22h13.68Zm-.83,31.88v-13.73h-12.02v13.73h12.02Zm2.07,280.03v-14.22h-13.68v14.22h13.68Zm-2.9-247.17v-12.26h-10.36v12.26h10.36Zm1.66,653.73v-13.73h-12.02v13.73h12.02Zm0,37.27v-13.73h-12.02v13.73h12.02Zm-2.49-658.63v-10.3h-9.12v10.3h9.12Zm2.9,246.68v-13.73h-12.02v13.73h12.02Zm0,337.41v-13.73h-11.61v13.73h11.61Zm-.83-304.55v-12.26h-10.36v12.26h10.36Zm1.24,267.28v-13.73h-11.61v13.73h11.61Zm-2.07-234.91v-10.3h-9.12v10.3h9.12Zm15.75-392.33v-16.18h-13.68v16.18h13.68Zm-.83,32.37v-14.22h-12.02v14.22h12.02Zm2.07,279.54v-16.18h-13.68v16.18h13.68Zm-2.9-247.17v-12.26h-10.36v12.26h10.36Zm-.83,32.86v-10.79h-9.12v10.79h9.12Zm2.9,246.68v-14.22h-12.02v14.22h12.02Zm-.83,32.37v-12.26h-10.37v12.26h10.37Zm-.83,32.86v-10.79h-9.12v10.79h9.12Zm2.49,310.92v-13.73h-11.61v13.73h11.61Zm.41-36.78v-14.22h-11.61v14.22h11.61Zm.42-37.27v-13.73h-11.61v13.73h11.61Zm11.61-663.04v-14.22h-13.68v14.22h13.68Zm0,32.86v-15.69h-13.68v15.69h13.68Zm-.83,32.86v-14.22h-12.02v14.22h12.02Zm-.83,32.37v-12.26h-10.36v12.26h10.36Zm2.9,213.82v-14.22h-13.27v14.22h13.27Zm0,32.86v-15.69h-13.27v15.69h13.27Zm-.41,32.86v-14.22h-12.02v14.22h12.02Zm-.83,32.37v-12.26h-10.37v12.26h10.37Zm2.9,345.75v-13.73h-11.61v13.73h11.61Zm.83-37.27v-13.73h-12.02v13.73h12.02Zm.42-74.54v-13.73h-11.61v13.73h11.61Zm0,37.27v-13.73h-11.61v13.73h11.61Zm10.36-664.52v-16.18h-13.68v16.18h13.68Zm0,33.35v-16.18h-13.68v16.18h13.68Zm-.83,32.37v-13.73h-12.02v13.73h12.02Zm2.07,246.19v-16.18h-13.68v16.18h13.68Zm0,33.35v-16.18h-13.68v16.18h13.68Zm-2.9-247.17v-11.77h-10.36v11.77h10.36Zm2.07,279.54v-13.73h-12.02v13.73h12.02Zm-.83,32.37v-11.77h-10.37v11.77h10.37Zm101.16-37.27l-109.03-128.98v37.27l109.03,128.98v-37.27Zm-95.77,347.71v-13.73h-11.61v13.73h11.61Zm.41-74.05v-13.73h-11.61v13.73h11.61Zm0,37.27v-14.22h-11.61v14.22h11.61Zm7.88-700.32v-14.22h-13.27v14.22h13.27Zm.42,32.86v-15.69h-13.27v15.69h13.27Zm0,33.84v-16.18h-13.27v16.18h13.27Zm-.42,32.37v-14.22h-12.02v14.22h12.02Zm2.07,245.7v-15.69h-13.68v15.69h13.68Zm0,33.84v-16.18h-13.68v16.18h13.68Zm-.83,32.37v-14.22h-12.02v14.22h12.02Zm5.8,344.76v-13.73h-11.61v13.73h11.61Zm.83-37.27v-13.73h-12.02v13.73h12.02Zm0-37.27v-13.73h-11.61v13.73h11.61Zm.42-37.27v-13.73h-11.61v13.73h11.61Zm6.22-627.24v-16.18h-13.68v16.18h13.68Zm.41,33.35v-16.18h-13.68v16.18h13.68Zm0,33.35v-15.69h-13.68v15.69h13.68Zm-.83,31.39v-12.75h-12.02v12.75h12.02Zm2.07,247.17v-16.18h-13.27v16.18h13.27Zm0,33.35v-15.69h-13.27v15.69h13.27Zm-.83,31.39v-12.75h-11.61v12.75h11.61Zm8.29,273.65v-14.22h-11.61v14.22h11.61Zm0,36.78v-13.73h-11.61v13.73h11.61Zm.42-74.05v-13.73h-11.61v13.73h11.61Zm4.56-630.19v-15.69h-13.68v15.69h13.68Zm.41-32.86v-14.22h-13.68v14.22h13.68Zm0,66.7v-16.18h-13.68v16.18h13.68Zm0,33.35v-16.18h-13.68v16.18h13.68Zm1.24,278.56v-16.18h-13.68v16.18h13.68Zm0,33.35v-16.18h-13.68v16.18h13.68Zm9.12,306.51v-13.73h-12.02v13.73h12.02Zm-.42,37.27v-13.73h-11.61v13.73h11.61Zm.83-111.82v-13.73h-11.61v13.73h11.61Zm0,37.27v-13.73h-11.61v13.73h11.61Zm2.9-631.17v-16.18h-13.27v16.18h13.27Zm.41-33.35v-16.18h-13.27v16.18h13.27Zm0,66.7v-15.69h-13.27v15.69h13.27Zm0,31.39v-13.73h-13.27v13.73h13.27Zm1.66,280.52v-15.69h-13.68v15.69h13.68Zm0,31.39v-13.73h-13.68v13.73h13.68Zm98.26-349.18l-109.04-128.98v37.27l109.04,128.98v-37.27Zm-85.82-44.63v-15.69h-13.68v15.69h13.68Zm0,33.84v-16.18h-13.68v16.18h13.68Zm0,33.35v-16.18h-13.68v16.18h13.68Zm-2.07,637.05v-13.73h-11.61v13.73h11.61Zm.41-74.05v-13.73h-11.61v13.73h11.61Zm0,37.27v-14.22h-11.61v14.22h11.61Zm2.9-288.37v-16.18h-13.27v16.18h13.27Zm97.01,307.98l-109.03-128.98v37.27l109.03,128.98v-37.27Zm-84.16-636.56v-15.69h-13.68v15.69h13.68Zm.41-33.35v-16.18h-13.68v16.18h13.68Zm0,64.74v-13.73h-13.68v13.73h13.68Zm-1.24,640.98v-13.73h-11.61v13.73h11.61Zm2.49-329.07v-13.73h-13.68v13.73h13.68Zm-1.66,291.8v-13.73h-12.02v13.73h12.02Zm0-37.27v-13.73h-11.61v13.73h11.61Zm13.68-581.14v-16.18h-13.27v16.18h13.27Zm.83-33.35v-16.18h-13.27v16.18h13.27Zm1.24,633.62v-14.22h-11.61v14.22h11.61Zm0,36.78v-13.73h-11.61v13.73h11.61Zm12.44-622.34v-13.73h-13.68v13.73h13.68Zm.41-31.39v-15.69h-13.68v15.69h13.68Zm2.9,635.09v-13.73h-12.02v13.73h12.02Zm-.42,37.27v-13.73h-11.61v13.73h11.61Zm11.61-655.69v-16.18h-13.68v16.18h13.68Zm4.56,637.05v-13.73h-11.61v13.73h11.61Zm9.54-622.34v-13.73h-13.68v13.73h13.68Zm5.8,640.98v-13.73h-11.61v13.73h11.61Z"/></g></g></svg>