<?xml version="1.0" encoding="utf-8"?>
<!-- Generator: Adobe Illustrator 26.5.0, SVG Export Plug-In . SVG Version: 6.00 Build 0)  -->
<svg version="1.1" id="Layer_1" xmlns="http://www.w3.org/2000/svg" xmlns:xlink="http://www.w3.org/1999/xlink" x="0px" y="0px"
	 viewBox="0 0 100 100" style="enable-background:new 0 0 100 100;" xml:space="preserve" fill="#1F9F8B">

<path class="st0" d="M72.4,34.9h2.9v15.9h-2.9v-3.3c-3.2,2.3-10.1,6.9-15.6,8.9v6c2.6-0.4,4.5,0.7,6.3,2.5c1.7,1.7,2.6,5.1,2.7,8.4
	c0.1,3.3-0.9,6.4-2.4,8.2c-1,1.2-4,2.6-5.6,2.6c-2,0-3.9-0.8-5.6-2.5c-4.5-4.5-2.2-13.1-1.3-18.5c0.3-1.8,0.6-3.7,0.8-5.6
	c-1.5,1.1-3,2.3-4.5,3.5c-4.2,3.5-10.4,9.8-16.6,8.1c-2.3-0.6-4-1.9-5-3.6c-1-1.7-1.2-3.8-0.6-6.1c0.6-2.3,3.1-4.6,5.9-6.2
	c2.9-1.6,6.3-2.5,8.6-1.8c2.4,0.7,4.3,1.8,5.3,4.2l5.2-3c-1-5.9-0.5-14.4-0.1-18.2c0.6-6,0.9-17.4,6.9-20.6l0,34.9l15.6-9L72.4,34.9
	L72.4,34.9z M52.7,53.3c-0.3,0.5-0.1,1.2,0.4,1.5c0.5,0.3,1.2,0.1,1.5-0.4c0.3-0.5,0.1-1.2-0.4-1.5C53.7,52.6,53,52.8,52.7,53.3
	L52.7,53.3z M40.4,57.1c-0.4-0.6-1.1-1.1-2.2-1.4c-1.4-0.3-3.8,0.7-5,1.3c-1.9,1-3.5,2.3-3.8,3.4c-0.6,2.1,0.1,3.3,2.3,3.9
	c1.1,0.3,3.2-0.4,5-1.4C38.7,61.9,41.9,59.7,40.4,57.1L40.4,57.1z M57.5,66.9c-3,0-3.3,4-3.3,6.1c0.1,2.1,0.5,4.2,1.3,5
	c1.6,1.6,2.9,1.6,4.5,0c1-1,1.1-3.6,1-4.9c-0.1-2.1-0.5-4.2-1.3-5C59.2,67.5,58.4,66.9,57.5,66.9z"/>
</svg>
